<?xml version="1.0" encoding="utf-8"?>
<!-- Generator: Adobe Illustrator 23.0.0, SVG Export Plug-In . SVG Version: 6.00 Build 0)  -->
<svg version="1.1" id="Layer_1" xmlns="http://www.w3.org/2000/svg" xmlns:xlink="http://www.w3.org/1999/xlink" x="0px" y="0px"
	 viewBox="0 0 222 88" style="enable-background:new 0 0 222 88;" xml:space="preserve">
<style type="text/css">
	.st0{fill:#D86666;}
	.st1{fill:#333333;}
	.st2{fill:#FC8D8D;}
	.st3{clip-path:url(#SVGID_2_);}
	.st4{opacity:0.2;}
	.st5{fill:none;stroke:#333333;stroke-width:2.28;stroke-linecap:round;stroke-miterlimit:10;}
	.st6{fill:#752323;}
	.st7{fill:#7E7984;}
	.st8{fill:#948F9B;}
	.st9{fill:#544F5E;}
	.st10{fill:none;stroke:#281C28;stroke-width:4.55;stroke-miterlimit:10;}
</style>
<title>button</title>
<g>
	<g>
		<g id="Layer_1-2">
			
				<image style="overflow:visible;opacity:0.4;enable-background:new    ;" width="225" height="90" xlink:href="9941C00CC3F463E.png"  transform="matrix(0.9797 0 0 0.9797 0.7869 -8.525456e-02)">
			</image>
			<polygon class="st0" points="19,73 11.4,65.5 11.4,23.5 19,15.9 203.1,15.9 210.7,23.5 210.7,65.5 203.1,73 			"/>
			<path class="st1" d="M202.9,16.5l7.2,7.2v41.5l-7.2,7.2H19.2L12,65.2V23.7l7.2-7.2H202.9 M203.3,15.3H18.7l-0.3,0.4l-7.2,7.2
				l-0.3,0.3v42.5l0.3,0.3l7.2,7.2l0.3,0.4h184.6l0.4-0.4l7.2-7.2l0.3-0.3V23.2l-0.3-0.3l-7.2-7.2L203.3,15.3L203.3,15.3z"/>
			<polygon class="st2" points="210.1,20.2 200.1,20.1 202.9,16.5 19.2,16.5 22,20.1 42,20.2 			"/>
			<g>
				<g>
					<defs>
						<polygon id="SVGID_1_" points="210.1,23.7 210.1,65.2 202.9,72.4 19.2,72.4 12,65.2 12,23.7 19.2,16.5 202.9,16.5 						"/>
					</defs>
					<clipPath id="SVGID_2_">
						<use xlink:href="#SVGID_1_"  style="overflow:visible;"/>
					</clipPath>
					<g class="st3">
						<g class="st4">
							<line class="st5" x1="20.1" y1="7.9" x2="20.1" y2="32.3"/>
							<line class="st5" x1="29.1" y1="22.8" x2="29.1" y2="47.2"/>
							<line class="st5" x1="39.3" y1="7.9" x2="39.3" y2="32.3"/>
							<line class="st5" x1="48.3" y1="22.8" x2="48.3" y2="47.2"/>
							<line class="st5" x1="58.5" y1="7.9" x2="58.5" y2="32.3"/>
							<line class="st5" x1="67.5" y1="22.8" x2="67.5" y2="47.2"/>
							<line class="st5" x1="77.7" y1="7.9" x2="77.7" y2="32.3"/>
							<line class="st5" x1="86.7" y1="22.8" x2="86.7" y2="47.2"/>
							<line class="st5" x1="96.9" y1="7.9" x2="96.9" y2="32.3"/>
							<line class="st5" x1="106" y1="22.8" x2="106" y2="47.2"/>
							<line class="st5" x1="116.1" y1="7.9" x2="116.1" y2="32.3"/>
							<line class="st5" x1="125.2" y1="22.8" x2="125.2" y2="47.2"/>
							<line class="st5" x1="135.3" y1="7.9" x2="135.3" y2="32.3"/>
							<line class="st5" x1="144.4" y1="22.8" x2="144.4" y2="47.2"/>
							<line class="st5" x1="154.6" y1="7.9" x2="154.6" y2="32.3"/>
							<line class="st5" x1="163.6" y1="22.8" x2="163.6" y2="47.2"/>
							<line class="st5" x1="173.8" y1="7.9" x2="173.8" y2="32.3"/>
							<line class="st5" x1="182.8" y1="22.8" x2="182.8" y2="47.2"/>
							<line class="st5" x1="193" y1="7.9" x2="193" y2="32.3"/>
							<line class="st5" x1="202" y1="22.8" x2="202" y2="47.2"/>
							<line class="st5" x1="20.1" y1="40.6" x2="20.1" y2="65"/>
							<line class="st5" x1="29.1" y1="55.4" x2="29.1" y2="79.8"/>
							<line class="st5" x1="39.3" y1="40.6" x2="39.3" y2="65"/>
							<line class="st5" x1="48.3" y1="55.4" x2="48.3" y2="79.8"/>
							<line class="st5" x1="58.5" y1="40.6" x2="58.5" y2="65"/>
							<line class="st5" x1="67.5" y1="55.4" x2="67.5" y2="79.8"/>
							<line class="st5" x1="77.7" y1="40.6" x2="77.7" y2="65"/>
							<line class="st5" x1="86.7" y1="55.4" x2="86.7" y2="79.8"/>
							<line class="st5" x1="96.9" y1="40.6" x2="96.9" y2="65"/>
							<line class="st5" x1="106" y1="55.4" x2="106" y2="79.8"/>
							<line class="st5" x1="116.1" y1="40.6" x2="116.1" y2="65"/>
							<line class="st5" x1="125.2" y1="55.4" x2="125.2" y2="79.8"/>
							<line class="st5" x1="135.3" y1="40.6" x2="135.3" y2="65"/>
							<line class="st5" x1="144.4" y1="55.4" x2="144.4" y2="79.8"/>
							<line class="st5" x1="154.6" y1="40.6" x2="154.6" y2="65"/>
							<line class="st5" x1="163.6" y1="55.4" x2="163.6" y2="79.8"/>
							<line class="st5" x1="173.8" y1="40.6" x2="173.8" y2="65"/>
							<line class="st5" x1="182.8" y1="55.4" x2="182.8" y2="79.8"/>
							<line class="st5" x1="193" y1="40.6" x2="193" y2="65"/>
							<line class="st5" x1="202" y1="55.4" x2="202" y2="79.8"/>
						</g>
					</g>
				</g>
			</g>
			<polygon class="st6" points="19,73 11.4,65.5 11.4,64.4 210.7,64.4 210.7,65.5 203.1,73 			"/>
			<path class="st1" d="M210.1,65v0.2l-7.2,7.2H19.2L12,65.2V65H210.1 M211.2,63.8H10.9v1.9l0.3,0.3l7.2,7.2l0.3,0.4h184.6l0.4-0.4
				l7.2-7.2l0.3-0.3V63.8L211.2,63.8z"/>
			
				<image style="overflow:visible;opacity:0.3;enable-background:new    ;" width="30" height="70" xlink:href="9941C00CC3F4642.png"  transform="matrix(0.9489 0 0 0.9489 7.3666 11.3888)">
			</image>
			<polygon class="st7" points="19.1,72.7 11.7,65.3 11.7,23.6 19.1,16.2 27.2,16.2 27.2,72.7 			"/>
			<path class="st1" d="M26.9,16.5v55.9h-7.7L12,65.2V23.7l7.2-7.2H26.9 M27.4,15.9H19l-0.2,0.2l-7.2,7.2l-0.2,0.2v41.9l0.2,0.2
				l7.2,7.2L19,73h8.4V15.9z"/>
			
				<image style="overflow:visible;opacity:0.3;enable-background:new    ;" width="29" height="70" xlink:href="9941C00CC3F4645.png"  transform="matrix(0.9477 0 0 0.9477 187.3586 11.4311)">
			</image>
			<polygon class="st7" points="194.9,72.7 194.9,16.2 203,16.2 210.4,23.6 210.4,65.3 203,72.7 			"/>
			<path class="st1" d="M202.9,16.5l7.2,7.2v41.5l-7.2,7.2h-7.7V16.5H202.9 M203.1,15.9h-8.5V73h8.5l0.2-0.2l7.2-7.2l0.2-0.2V23.5
				l-0.2-0.2l-7.2-7.2C203.3,16.1,203.1,15.9,203.1,15.9z"/>
			<polygon class="st8" points="26.6,65 23.4,65 23.4,17.7 26.6,18 			"/>
			<polygon class="st9" points="26.9,65 26.9,72.4 19.2,72.4 12,65.2 12,65 			"/>
			<polygon class="st9" points="210.1,65 210.1,65.2 202.9,72.4 195.2,72.4 195.2,65 			"/>
			<rect x="195.2" y="16.9" class="st8" width="2.8" height="47.8"/>
			<polyline class="st10" points="12,31.4 12,23.7 19.2,16.5 26.9,16.5 			"/>
			<polyline class="st10" points="26.9,72.4 19.2,72.4 12,65.2 12,57.5 			"/>
			<polyline class="st10" points="195.2,16.5 202.9,16.5 210.1,23.7 210.1,31.4 			"/>
			<polyline class="st10" points="210.1,57.5 210.1,65.2 202.9,72.4 195.2,72.4 			"/>
			<path class="st0" d="M202.6,46.1c-1.5-0.1-2.7-1.3-2.7-2.8c0-0.5,0.2-1.1,0.5-1.5c0.1-0.2,0.2-0.4,0.4-0.6
				c0.7-1.3,1.2-2.7,1.5-4.2c0.1-0.4,0.2-0.7,0.4-1c0,0.3,0.1,0.7,0.2,1c0.3,1.5,0.9,3,1.7,4.3l0.3,0.5c0.3,0.4,0.5,1,0.5,1.5
				C205.4,44.8,204.1,46.1,202.6,46.1z"/>
			<path class="st1" d="M202.6,37L202.6,37c0.4,1.5,1,2.9,1.7,4.3l0.3,0.6c0.4,0.6,0.6,0.8,0.6,1.3c-0.3,1.4-1.6,2.3-3.1,2
				c-1-0.2-1.8-1-2-2c0-0.5,0.2-0.7,0.5-1.4c0.2-0.1,0.4-0.4,0.4-0.6C201.8,39.9,202.3,38.5,202.6,37L202.6,37 M202.6,35.7
				L202.6,35.7c-0.6,0-0.4,2.2-2.1,5.4c-0.6,1-0.9,1.4-0.9,2.2c-0.1,1.7,1.2,3,2.9,3.1h0.1c1.7,0,3.1-1.4,3.1-3.1l0,0
				c0-0.8-0.3-1.2-0.9-2.2C203,38,203.2,35.7,202.6,35.7L202.6,35.7z"/>
			<path class="st0" d="M19.4,46.1c-1.5-0.1-2.7-1.3-2.8-2.8c0-0.6,0.2-1.1,0.6-1.5l0.3-0.6c0.8-1.3,1.3-2.7,1.6-4.2
				c0.1-0.4,0.3-0.9,0.3-1c0.1,0.3,0.2,0.7,0.3,1c0.3,1.5,0.9,3,1.7,4.3l0.3,0.5c0.3,0.5,0.5,1,0.5,1.5
				C22.2,44.8,20.9,46.1,19.4,46.1z"/>
			<path class="st1" d="M19.4,37L19.4,37c0.4,1.5,1,2.9,1.7,4.3l0.3,0.6c0.3,0.4,0.5,0.8,0.5,1.3c0,1.4-1.1,2.5-2.5,2.5
				s-2.5-1.1-2.5-2.5c0-0.5,0.2-0.7,0.5-1.4c0.2-0.2,0.3-0.4,0.4-0.6C18.6,39.9,19.1,38.5,19.4,37L19.4,37 M19.4,35.7L19.4,35.7
				c-0.6,0-0.4,2.2-2.1,5.4c-0.6,1-0.9,1.4-0.9,2.2c-0.1,1.7,1.2,3,2.9,3.1h0.1c1.7,0,3.1-1.4,3.1-3.1c0-0.8-0.3-1.2-0.9-2.2
				C19.8,38,20,35.7,19.4,35.7z"/>
		</g>
	</g>
</g>
</svg>
