<svg xmlns="http://www.w3.org/2000/svg" xmlns:xlink="http://www.w3.org/1999/xlink" viewBox="0 0 1000 353.3"><defs><style>.cls-1{fill:none;}.cls-2{isolation:isolate;}.cls-3{fill:#d86161;}.cls-4{font-size:200px;font-family:Roboto-Black, Roboto;font-weight:800;letter-spacing:0.1em;}.cls-5{clip-path:url(#clip-path);}.cls-6,.cls-8,.cls-9{opacity:0.2;}.cls-6{mix-blend-mode:overlay;}.cls-7{fill:#61c0d6;stroke:#333;stroke-linecap:round;stroke-miterlimit:10;stroke-width:2.3px;}.cls-9{fill:#fff;}</style><clipPath id="clip-path"><polygon class="cls-1" points="1000 78.3 1000 280.8 963.6 316 36.4 316 0 280.8 0 78.3 36.4 43 963.6 43 1000 78.3"/></clipPath></defs><title>hit_4</title><g class="cls-2"><g id="Layer_2" data-name="Layer 2"><g id="Layer_1-2" data-name="Layer 1"><rect class="cls-3" y="29.3" width="1000" height="300"/><text class="cls-4" transform="translate(347.9 253.4)">Hit</text><g class="cls-5"><g class="cls-6"><line class="cls-7" x1="40.7" y1="1.2" x2="40.7" y2="120.2"/><line class="cls-7" x1="86.4" y1="73.6" x2="86.4" y2="192.7"/><line class="cls-7" x1="137.7" y1="1.2" x2="137.7" y2="120.2"/><line class="cls-7" x1="183.4" y1="73.6" x2="183.4" y2="192.7"/><line class="cls-7" x1="234.7" y1="1.2" x2="234.7" y2="120.2"/><line class="cls-7" x1="280.4" y1="73.6" x2="280.4" y2="192.7"/><line class="cls-7" x1="331.7" y1="1.2" x2="331.7" y2="120.2"/><line class="cls-7" x1="377.3" y1="73.6" x2="377.3" y2="192.7"/><line class="cls-7" x1="428.7" y1="1.2" x2="428.7" y2="120.2"/><line class="cls-7" x1="474.3" y1="73.6" x2="474.3" y2="192.7"/><line class="cls-7" x1="525.7" y1="1.2" x2="525.7" y2="120.2"/><line class="cls-7" x1="571.3" y1="73.6" x2="571.3" y2="192.7"/><line class="cls-7" x1="622.7" y1="1.2" x2="622.7" y2="120.2"/><line class="cls-7" x1="668.3" y1="73.6" x2="668.3" y2="192.7"/><line class="cls-7" x1="719.6" y1="1.2" x2="719.6" y2="120.2"/><line class="cls-7" x1="765.3" y1="73.6" x2="765.3" y2="192.7"/><line class="cls-7" x1="816.6" y1="1.2" x2="816.6" y2="120.2"/><line class="cls-7" x1="862.3" y1="73.6" x2="862.3" y2="192.7"/><line class="cls-7" x1="913.6" y1="1.2" x2="913.6" y2="120.2"/><line class="cls-7" x1="959.3" y1="73.6" x2="959.3" y2="192.7"/><line class="cls-7" x1="40.7" y1="160.6" x2="40.7" y2="279.7"/><line class="cls-7" x1="86.4" y1="233" x2="86.4" y2="352.1"/><line class="cls-7" x1="137.7" y1="160.6" x2="137.7" y2="279.7"/><line class="cls-7" x1="183.4" y1="233" x2="183.4" y2="352.1"/><line class="cls-7" x1="234.7" y1="160.6" x2="234.7" y2="279.7"/><line class="cls-7" x1="280.4" y1="233" x2="280.4" y2="352.1"/><line class="cls-7" x1="331.7" y1="160.6" x2="331.7" y2="279.7"/><line class="cls-7" x1="377.3" y1="233" x2="377.3" y2="352.1"/><line class="cls-7" x1="428.7" y1="160.6" x2="428.7" y2="279.7"/><line class="cls-7" x1="474.3" y1="233" x2="474.3" y2="352.1"/><line class="cls-7" x1="525.7" y1="160.6" x2="525.7" y2="279.7"/><line class="cls-7" x1="571.3" y1="233" x2="571.3" y2="352.1"/><line class="cls-7" x1="622.7" y1="160.6" x2="622.7" y2="279.7"/><line class="cls-7" x1="668.3" y1="233" x2="668.3" y2="352.1"/><line class="cls-7" x1="719.6" y1="160.6" x2="719.6" y2="279.7"/><line class="cls-7" x1="765.3" y1="233" x2="765.3" y2="352.1"/><line class="cls-7" x1="816.6" y1="160.6" x2="816.6" y2="279.7"/><line class="cls-7" x1="862.3" y1="233" x2="862.3" y2="352.1"/><line class="cls-7" x1="913.6" y1="160.6" x2="913.6" y2="279.7"/><line class="cls-7" x1="959.3" y1="233" x2="959.3" y2="352.1"/></g></g><rect class="cls-8" y="291.9" width="1000" height="37.46"/><rect class="cls-9" y="29.3" width="1000" height="18.73"/></g></g></g></svg>