<?xml version="1.0" encoding="utf-8"?>
<!-- Generator: Adobe Illustrator 23.0.0, SVG Export Plug-In . SVG Version: 6.00 Build 0)  -->
<svg version="1.1" id="Layer_1" xmlns="http://www.w3.org/2000/svg" xmlns:xlink="http://www.w3.org/1999/xlink" x="0px" y="0px"
	 viewBox="0 0 351 574" style="enable-background:new 0 0 351 574;" xml:space="preserve">
<style type="text/css">
	.st0{fill:#BB9E86;}
	.st1{fill:#CEAF94;}
	.st2{fill:#AC927C;}
	.st3{fill:#BDA188;}
	.st4{fill:#A68D78;}
	.st5{fill:#C5A78E;}
	.st6{fill:#19335D;}
	.st7{fill:#1E3D6F;}
	.st8{fill:#1D3B6B;}
	.st9{fill:url(#SVGID_1_);}
	.st10{fill:#8E735E;}
	.st11{fill:#D3B798;}
	.st12{fill:#A5907C;}
	.st13{opacity:0.3;}
	.st14{fill:#333333;}
	.st15{fill:#222222;}
	.st16{fill:#A58976;}
	.st17{fill:#EFEFEF;}
	.st18{fill:#232121;}
	.st19{fill:#201E1E;}
	.st20{fill:#3A3939;}
	.st21{fill:#515050;}
	.st22{fill:#353333;}
	.st23{fill:#2A2525;}
	.st24{fill:#636262;}
	.st25{fill:#373737;}
	.st26{fill:#404040;}
	.st27{fill:#494949;}
	.st28{fill:#484747;}
	.st29{fill:#3D3C3C;}
	.st30{fill:#353131;}
	.st31{fill:#4F4F4F;}
	.st32{fill:#C3C1C1;}
	.st33{fill:#555555;}
	.st34{fill:#616161;}
	.st35{fill:#727272;}
	.st36{fill:#606060;}
	.st37{fill:#747474;}
	.st38{fill:#8A8A8A;}
	.st39{fill:#808080;}
	.st40{fill:#1D1C1C;}
	.st41{fill:#514E4E;}
	.st42{fill:#C13C3C;}
	.st43{fill:#1BAFB2;}
	.st44{fill:#20CED2;}
</style>
<title>man_cover</title>
<g>
	<g>
		<g id="Layer_1-2">
			<g>
				<polygon class="st0" points="306.3,246.1 301.4,275.1 270.4,277.1 275,247.9 				"/>
				<polygon class="st1" points="270.4,277.1 223.1,206.6 227,178.7 275,247.9 				"/>
				<polygon class="st2" points="275,247.9 227,178.7 256.6,177.4 306.3,246.1 				"/>
			</g>
			<g>
				<polygon class="st3" points="72.5,308.7 83.7,322.1 54.9,316.5 43.3,303 				"/>
				<polygon class="st4" points="72.5,308.7 119.2,179.9 129.5,195 83.7,322.1 				"/>
				<polygon class="st5" points="43.3,303 90.5,175.5 119.2,179.9 72.5,308.7 				"/>
			</g>
			<g>
				<polygon class="st6" points="120.2,526.5 170.5,320.2 174.9,321.9 125.9,522.8 				"/>
				<polygon class="st7" points="74.1,514.8 124.1,309 170.5,320.2 120.2,526.5 				"/>
			</g>
			<g>
				<polygon class="st7" points="218.8,529.6 164.7,329.7 171.3,322.9 226.9,528.1 				"/>
				<polygon class="st8" points="226.9,528.1 171.3,322.9 216.9,311.5 272.4,515.6 				"/>
			</g>
			
				<image style="overflow:visible;opacity:0.3;enable-background:new    ;" width="163" height="222" xlink:href="E2D672BE9FD96253.png"  transform="matrix(0.9939 0 0 0.9939 90.4 165.581)">
			</image>
			
				<linearGradient id="SVGID_1_" gradientUnits="userSpaceOnUse" x1="171.3" y1="240.48" x2="171.3" y2="379.52" gradientTransform="matrix(1 0 0 -1 0 576)">
				<stop  offset="0" style="stop-color:#982449"/>
				<stop  offset="1" style="stop-color:#751C1B"/>
			</linearGradient>
			<polygon class="st9" points="232.8,367.2 109.8,367.2 101.8,177.5 114,170 228.6,170 240.8,177.5 			"/>
			<polygon class="st10" points="101.8,177.5 114,170 228.6,170 240.8,177.5 			"/>
			<polygon class="st11" points="232.5,172 110,172 105.1,55.1 121.9,46.6 217.6,46.6 237.3,55.1 			"/>
			<polygon class="st12" points="209.2,110.4 183,110.4 182.2,100.8 210.1,100.8 			"/>
			<polygon class="st12" points="157.5,110.4 131.4,110.4 130.5,100.8 158.4,100.8 			"/>
			<circle class="st12" cx="170.3" cy="126.9" r="5"/>
			<g>
				<g class="st13">
					<circle cx="170.3" cy="126.9" r="5"/>
				</g>
			</g>
			
				<image style="overflow:visible;opacity:0.5;enable-background:new    ;" width="137" height="27" xlink:href="E2D672BE9FD96251.png"  transform="matrix(0.963 0 0 0.963 104.537 93.5)">
			</image>
			<polygon class="st14" points="216.3,98.1 213.5,98.1 179.2,98.1 175.9,98.1 163.7,98.1 161.1,98.1 127.5,98.1 123.3,98.1 
				107.1,98.1 107.1,102.2 124.2,102.2 126.7,114.3 162,115.2 163.4,101.1 176.2,101.1 177.6,115.2 212.9,114.3 215.5,102.2 
				233.9,102.2 233.9,98.1 			"/>
			<polygon class="st12" points="147.3,139.1 147.3,145.2 147.3,146.4 147.3,152.6 154,152.6 154,146.4 186.6,146.4 186.6,152.6 
				193.2,152.6 193.2,146.4 193.2,145.2 193.2,139.1 			"/>
			<g>
				<g class="st13">
					<polygon points="147.3,139.1 147.3,145.2 147.3,146.4 147.3,152.6 154,152.6 154,146.4 186.6,146.4 186.6,152.6 193.2,152.6 
						193.2,146.4 193.2,145.2 193.2,139.1 					"/>
				</g>
			</g>
			
				<image style="overflow:visible;opacity:0.3;enable-background:new    ;" width="143" height="32" xlink:href="E2D672BE9FD96257.png"  transform="matrix(0.9688 0 0 0.9688 102.2344 43.5)">
			</image>
			<path class="st14" d="M217.6,46.6H121l-16.8,8.5l6.6,13.7l6.6-13.7l6.6,13.7l6.6-13.7l6.6,13.7l6.7-13.7l6.6,13.7l6.6-13.7
				l6.6,13.7l6.6-13.7l6.6,13.7l6.6-13.7l6.6,13.7l6.6-13.7l6.6,13.7l6.6-13.7l6.6,13.7l6.6-13.7l6.7,13.7l7.5-13.7L217.6,46.6z"/>
			<path class="st15" d="M237.3,55.1H104.2l16.8-8.5h96.6L237.3,55.1z"/>
			<polygon class="st16" points="171.2,208.3 155.8,177.5 186.6,177.5 			"/>
			<g>
				<g class="st13">
					<polygon points="171.2,208.3 155.8,177.5 186.6,177.5 					"/>
				</g>
			</g>
			<circle class="st17" cx="171.3" cy="223.5" r="3.6"/>
			<circle class="st17" cx="171.3" cy="242.4" r="3.6"/>
			<circle class="st17" cx="171.3" cy="261.3" r="3.6"/>
			<path class="st18" d="M84.7,280.5l0.4,1.4c0.3,0.9,0.5,1.9,0.8,2.8l-1,1.5h-0.4l3.9,14.4l0,0l-4.8,1.3l-0.4-1.6l1.7-0.6l1.8-0.5
				l-2.2-6.3c-0.3-1-0.6-2.1-0.8-3.1s-0.8-1.7-2-1.2l-1.5,0.5l0.4,1.4l0,0l-1.6,0.4l2.2,8l1.6-0.2l0.4,1.6l-4.8,1.3l-0.5-1.5
				l-1.4-5.1l-0.2-1.3l0.2-0.3l1.2-0.4l-0.8-3.1l1.5-0.6L70.9,262l6.4-1.8l0.9,3.1l-1.3,0.3l-0.7-1.2l-3.2,0.9l0.5,1.5l2.1,7.8
				l0.5,1.6l3.1-0.8v-1.5l1.3-0.3l2.6,9.5L84.7,280.5L84.7,280.5z M79.7,287.1l2.9-0.8l-3-11.2l-1.3,0.4l-1.7,0.5l2.7,9.6
				L79.7,287.1z"/>
			<path class="st19" d="M304.6,228.7l-1.7,0.4l0,0l4,14.5h0.1l1.6-0.5L304.6,228.7z"/>
			<path class="st20" d="M192.3,249.1l-1.5,0.6l-0.5-1.5l-1.6,0.3l0.3,1.6l-1.6,0.3l-1.6,0.5l-1.6,0.4l-1.6,0.5l-1.6,0.4l-1.6,0.5
				l-1.6,0.4l-6.5,1.8l-1.6,0.4l-1.6,0.5l-1.5,0.5l-0.5-1.5l-1.6,0.5l0.3,1.5l-1.6,0.3l-1.5,0.4l-1.5,0.6l-0.6-1.5l-1.5,0.4l0.2,1.5
				l-1.5,0.4l-1.6,0.4l-1.5,0.6l-0.5-1.5l-1.6,0.3l0.3,1.7l-1.6,0.3l-1.6,0.4l-1.6,0.5l-1.6,0.4l-1.5,0.5l-0.5-1.4l-1.6,0.4l0.3,1.5
				l-1.6,0.3l-1.5,0.4l-1.5,0.6l-0.6-1.5l-1.5,0.4l0.3,1.6l-1.6,0.3l-1.6,0.4l-1.5,0.6l-0.5-1.5l-1.5,0.3l0.2,1.7l-1.5,0.3l-1.6,0.4
				l-1.6,0.5l-1.6,0.4l-1.5,0.5l-0.6-1.4l-1.6,0.4l0.4,1.5l-1.6,0.3l-1.6,0.5l-1.5,0.5l-0.5-1.4l-1.6,0.3l0.3,1.6l-1.6,0.3l-1.5,0.4
				l-1.5,0.6l-0.6-1.5l-1.5,0.4l0.3,1.5l-1.3,0.5l0.4,1.5l1.8-0.2l60.6-16.7l1.7-0.5l0.5,1.4l0.4,1.7l0.5,1.6l1.6,4.7l-1.8,0.5
				l-1.6,0.5l0.5,1.6l1.6-0.4l1.5-0.3l1.2,4.4l1.2,3.5l1.7-0.5l-0.4-1.7l48.2-13.2l0,0l-0.5-1.7l-20.9,5.7l-19.5,5.4l-4.8,1.3
				l-1.6,0.5l-1.4,0.3c-0.2-0.4-0.4-0.9-0.5-1.3c-1.2-4.4-2.3-8.9-3.6-13.2c-0.4-1.3-0.1-1.7,1.1-2l33.3-9.1l19.7-5.5
				c1.8-0.4,1.8-0.4,2.2,1.2l0.5,1.6l0.5,1.8l0.3,1.3l-3.2,0.9l0.4,1.7l3.1-0.9c3.4-0.9,3.4-0.9,4.2,2.5l1.7-0.4l2.3,8.1
				c0.8,3,0.8,3-2.3,3.8l-3.3,1l0.7,1.5l6.1-1.6l0.6,1.7l1.6-0.7l-4-14.3l-0.4-1.7l-0.9-3.4l-0.4-1.1v-0.3l-1.7,0.5l0.3,1.3l-3,0.9
				l-0.3-1.4c-0.2-0.5-0.3-1-0.5-1.5s-0.4-1.8,1.3-2.3l1.2-0.4l-0.2-1.5c-0.1,0-0.1,0-0.1-0.1l-1.5,0.4l-0.6-1.4l-1.6,0.2l-1.6,0.4
				l-1.6,0.5l-1.6,0.4l-1.6,0.5l-1.6,0.4l-1.5,0.6l-0.5-1.5l-1.6,0.4l0.3,1.5l-1.6,0.3l-1.5,0.5l-1.5,0.5l-0.6-1.4l-1.5,0.3l0.2,1.6
				l-1.5,0.3l-1.6,0.5l-1.6,0.4l-1.6,0.4l-1.7,0.5l-1.6,0.5l-1.6,0.4l-1.6,0.4l-1.4,0.6l-0.6-1.5l-1.6,0.4l0.3,1.5l-1.6,0.4
				L192.3,249.1z"/>
			<path class="st21" d="M245.5,291.8c0,0.1,0.1,0.2,0.2,0.2c0,0,0,0,0,0l1.6-0.5l1.3,4.8l1.6-0.5l0,0c-0.5-1.7-0.5-1.7,1.3-2.1l0,0
				L251,292l1.7-0.4l0,0c-0.4-1-0.5-1.9,0.9-2c-0.7-1.4,0.1-1.8,1.3-2l0,0c-0.5-1.7-0.5-1.7,1.2-2.2l0,0l-1.3-4.9l0,0
				c-1.7,0.6-1.7,0.6-2.1-1.3l0,0c-1.8,0.6-1.8,0.6-2.2-1.3h0.1l-1.5,0.4l-0.5-1.6l0,0L247,277l-0.5-1.5l0,0l-1.6,0.4l-0.4-1.5l0,0
				c-1.8,0.6-1.8,0.6-2.1-1.2l0,0l-1.7,0.5c-0.4,0.2-1,0.3-1.2,0.7c-0.5,0.6-0.9,1.3-1.1,2l-0.3-0.2l0.2,1.4l-1.4,0.6l0.2,1.7
				l-1.6,0.4l0.5,1.6l0,0c1.3-0.6,2-0.2,2.1,1.2l0,0c1.7-0.4,1.7-0.4,2.2,1.3l0,0c0.2-0.2,0.5-0.2,0.8-0.2l1,0.3
				c-0.2,0.4-0.4,0.7-0.7,1c-0.1,0.2-0.5,0.2-0.8,0.2l0,0c0.3,0.5,0.6,1,0.9,1.5c1.5-0.4,1.5,0.6,1.7,1.5l0,0c1-0.6,1.7-0.3,1.8,0.9
				C245.1,290.3,245.3,291.1,245.5,291.8z"/>
			<path class="st20" d="M135,292.8l1.4-0.4l0.6,1.5l1.6-0.4l-0.4-1.6l1.5-0.4l1.7-0.5l1.5-0.4l0.6,1.6l1.5-0.4l-0.3-1.7l1.5-0.4
				l1.7-0.4l1.4-0.4l0.6,1.5l1.5-0.4l-0.2-1.7l1.4-0.4l1.8-0.5l1.4-0.4l1.7-0.4l1.5-0.4l0.6,1.5l1.5-0.4l-0.3-1.6l1.5-0.4l1.7-0.5
				l1.4-0.4l0.7,1.5l1.4-0.3l-0.2-1.7l1.4-0.4l1.7-0.5l1.5-0.4l0.6,1.5l1.5-0.4l-0.3-1.5l1.3-0.5V280h-0.1l-1.7,0.4l-11.2,3.1
				l-0.4-1.5v-0.2l-4.8,1.6v1.5l-10.9,3l-0.5-1.4l-4.9,1.4l0.2,1.4l-17.4,4.8l-0.5-1.4l-4.9,1.4l0.3,1.4l-11,3.1l-0.5-1.4l-5,1
				l0.3,1.8l-4.7,1.2l-0.8-2.9l-4.7,1.3l0.3,1.4h0.6c0.9-0.1,2-0.7,2.5-0.3s0.6,1.6,0.9,2.5l0,0l1.6-0.3l0.6,1.5l1.5-0.3l-0.2-1.8
				l1.4-0.4l1.7-0.4l1.5-0.4l0.6,1.5l1.5-0.3l-0.3-1.7l1.5-0.4l1.7-0.5l1.4-0.4l1.8-0.5l1.4-0.4c0.2,0.5,0.4,1,0.7,1.5l1.5-0.4
				l-0.3-1.6l1.4-0.4l1.7-0.5l1.5-0.3l0.6,1.5l1.5-0.4l-0.2-1.7l1.4-0.4l1.7-0.4l1.4-0.4l0.6,1.5l1.5-0.3l-0.2-1.7l1.5-0.5l1.7-0.5
				l1.4-0.3L135,292.8z"/>
			<path class="st18" d="M73.1,301.2l0.3,1.5l-20.8,5.8l-2.2-7.9l20.9-5.8l0.4,1.5C72.2,297.9,72.6,299.6,73.1,301.2z M59.7,303.2
				l-6.3,1.7l0.4,1.5l6.3-1.7L59.7,303.2z M52.9,303.2l6.3-1.8l-0.4-1.4l-6.3,1.7L52.9,303.2z"/>
			<path class="st22" d="M181.4,292.2l-1.3,0.4l0.8,3l3.3-0.5l1.5-0.7l20.9-5.8l0.4,1.7c1.8,6.4,3.6,12.8,5.3,19.2h0.1l1.6-0.4
				l-5.8-21l14.2-4l0.2-0.3l-0.2-1.3h-0.1L182,293.6l-0.5-1.3L181.4,292.2z"/>
			<path class="st19" d="M248,249.7l0.4,1.4l3-0.8l0.7,1.5l1.5-0.4l0,0l-0.4-1.6l1.3-0.4c2.8-0.8,5.6-1.5,8.3-2.4s1.9,0.1,2.1,1.2
				s0.5,2.3,0.8,3.5h0.2l1.4-0.4l-0.8-3.3c-0.6-1.8-0.2-2.2,2.9-2.4l1.3,4.8l1.6-0.5l0,0c-0.2-0.7-0.4-1.3-0.5-2
				c-0.9-3.2-0.9-3.2,2.4-3.8l13.5-3.7c0.4-0.1,0.7-0.1,1.1,0l4.6-1.8l-0.3-1.3l-1.7,0.2L248,249.7L248,249.7z"/>
			<path class="st22" d="M222.4,282.6l9.5-2.6v-0.2l-2.2-8.1l-1.6,0.5l1.8,6.6l-4.8,1.3l-0.5-1.6l-4.9,1.3l-3.3,1l-1.4,0.4l0.4,1.7
				l6.3-1.8l0.5,1.4L222.4,282.6z"/>
			<path class="st19" d="M277.9,251.6l-0.4-1.6l14.4-4l0,0l-0.3-1.4l0,0l-19.3,5.3l0,0l0.4,1.5l3.1-0.9l0.5,1.6h0.8l0.8-0.3V251.6z"
				/>
			<path class="st23" d="M261.4,254.6l0.4,1.4l1.6-0.2l0.5,1.4l1.5-0.3l0.6,1.5l1.5-0.3l0.6,1.5l3-0.9l-0.2-1.5l1.4-0.6l-0.3-1.5
				l1.1-0.4l-0.7-0.5c-1,0.6-1-0.2-1.2-0.8l-1.4,0.4l0.4,1.6l-2.9,0.8l-0.6-1.4l-1.5,0.2l-0.7-1.4l-1.5,0.2c-0.3-1.6-1.2-1-2.1-0.8
				L261.4,254.6z"/>
			<path class="st24" d="M237.4,249l0.4,1.7l8-2.2l-2.2-8.2l-1.6,0.5l-1.6,0.5l0.3,1.6l1.8-0.3l0.3,1.3l0.9,3.3L237.4,249z"/>
			<path class="st25" d="M185.7,294.4l-1.5,0.7c1.4,5.3,2.8,10.6,4.3,15.9l0,0l1.6-0.4l0,0L185.7,294.4z"/>
			<path class="st19" d="M261.4,254.6l-0.5-1.6l0,0c-1.2,0.6-1.8-0.1-2.3-1.2l-1.2,0.4c0.3,0.7,0.4,1.4,0.5,2.2
				c0.1,0.3-0.3,0.7-0.5,1.1s-0.9-0.4-1.1-0.7c-0.3-0.7-0.5-1.4-0.6-2.2l1.7-0.4l-0.5-1.7l-3.3,0.9l0,0l1.7,6.4l4.8-1.3l-0.2-1.5
				L261.4,254.6z"/>
			<path class="st22" d="M177.5,277.7l3.9,14.5h0.1l1.5-0.6l-3.9-14.3l-1.6,0.3V277.7z"/>
			<path class="st19" d="M243.6,240.3l2.2,8.2l0.4,1l0.4,0.3h1.4l-2.7-9.7l-0.4-1.7h-0.1l-1.5,0.5L243.6,240.3z"/>
			<path class="st26" d="M307.2,250.8v-0.3l-1.5-5.2c0-0.1-0.2-0.2-0.4-0.4l-1.5-0.2l0.4,1.6l0.9,3.1l-1.6,0.5l1.2,4.8h0.1l1.6-0.5
				l0,0l-0.8-3L307.2,250.8z"/>
			<path class="st27" d="M240.2,265.7l-0.6-1.7l-6.1,1.6h-0.3l0.5,1.7l1.6-0.5c1.3-0.5,2.1-0.3,2.2,1.2l1.5-0.4l1.6-0.5L240.2,265.7
				z"/>
			<path class="st22" d="M250.2,295.8l-1.6,0.5l-1.3-4.8l-1.6,0.5l1.3,4.6l-1.5,0.5l0.4,1.5l4.7-1.3L250.2,295.8z"/>
			<path class="st18" d="M296.2,248.4l2.1,7.8h0.4l1.1-0.2l-2.2-8.1l-1.4,0.4V248.4z"/>
			<path class="st23" d="M74.7,300.8l0.4,1.5l1.5-0.4l-0.2-1.7l-1.3-4.8l-0.5-1.2l-1.2,0.3v1.4C73.8,297.5,74.2,299.2,74.7,300.8z"
				/>
			<path class="st19" d="M96.1,303.4L96.1,303.4c-0.3-0.9-0.3-2.1-0.9-2.5s-1.6,0.2-2.5,0.3h-0.6l-1.5,0.7h-0.1l0.4,1.1l0.3,0.2
				l1.4-0.2c0.1,1.6,1.1,1.5,2.2,1.1L96.1,303.4z"/>
			<path class="st28" d="M297.6,248l2.2,8.1h0.1l1.6-0.5l0,0l-2.2-8l-1.4,0.3L297.6,248z"/>
			<path class="st28" d="M185.6,325.6l-1.6,0.6l0.9,3.2l3.2-0.9h0.1l-1-3.4L185.6,325.6z"/>
			<path class="st19" d="M306.5,254.2l-1.6,0.5l0.3,1.7l-3,0.8c0.2,1.5,0.9,1.8,2.2,1.2l2.9-0.8L306.5,254.2z"/>
			<path class="st18" d="M305.4,244.9c0.2,0.2,0.4,0.3,0.4,0.4l1.5,5.2l1.5-0.4l-1.8-6.4h-0.1l-1.6,0.8L305.4,244.9z"/>
			<path class="st22" d="M243.2,289.1c-0.2-0.9-0.2-1.9-1.7-1.5c-0.3-0.5-0.6-1-0.9-1.5l-1.5,0.6l0.9,3.1L243.2,289.1z"/>
			<path class="st29" d="M212.1,315l1.7-0.6l-1.4-4.8h-0.1c-1.4,0.2-1.7,0.9-1.2,2.2s0.6,2.2,0.9,3.3L212.1,315z"/>
			<path class="st30" d="M254.8,280.6l1.3,4.9l1.5-0.5l-1.3-4.8L254.8,280.6z"/>
			<path class="st31" d="M75.1,295.4l1.3,4.8l1.5-0.2l-1.4-5.1L75.1,295.4z"/>
			<path class="st28" d="M74.7,300.8c-0.5-1.6-0.9-3.3-1.3-4.9l-1.7,0.4c0.5,1.6,0.9,3.3,1.4,4.9L74.7,300.8z"/>
			<path class="st30" d="M239,267.7l-1.5,0.4l1.3,4.8l1.4-0.4l0,0L239,267.7z"/>
			<path class="st26" d="M302.2,257.2l3-0.8l-0.3-1.7h-0.1l-3.3,0.9l0,0l0.4,1.4L302.2,257.2z"/>
			<path class="st25" d="M210,326.1l1.6-0.7l-0.9-3.1l0,0l-1.6,0.5L210,326.1L210,326.1z"/>
			<path class="st20" d="M208.5,333.4l1.6-0.6l-0.9-3.2l0,0l-1.7,0.5L208.5,333.4L208.5,333.4z"/>
			<path class="st20" d="M187.1,318.2l-1.6,0.7l0.8,3.1h0.1l1.7-0.5l0,0l-0.9-3.3L187.1,318.2z"/>
			<path class="st20" d="M210.7,322.3l1.5-0.4c-0.2-1.1-0.4-2.3-0.7-3.4l0,0c-1.4,0.1-1.8,0.8-1.2,2.1
				C210.5,321.2,210.6,321.7,210.7,322.3L210.7,322.3z"/>
			<path class="st25" d="M188.5,311l-1.5,0.4l0.7,3.4l0,0l1.7-0.4l0,0L188.5,311z"/>
			<path class="st25" d="M201.5,333.5l0.7,1.6l3.1-0.9l0,0c-0.1-1.4-0.8-1.8-2.1-1.2L201.5,333.5z"/>
			<path class="st29" d="M195.8,331.5l0.6,1.7l3.2-0.9c0.1,0,0.1,0,0.1-0.1l0,0l-0.5-1.7l0,0l-1.7,0.5l-1.6,0.5H195.8z"/>
			<path class="st25" d="M209.2,329.6l1.3-0.4l0.2-0.3l-0.7-2.8l0,0l-1.8,0.2L209.2,329.6L209.2,329.6z"/>
			<path class="st25" d="M185.6,325.6l1.6-0.5l0,0l-0.8-3h-0.1l-1.3,0.5v0.3L185.6,325.6z"/>
			<path class="st25" d="M190.3,329.7l0.4,1.5l3.1-0.7l0,0l-0.4-1.7l0,0L190.3,329.7L190.3,329.7z"/>
			<path class="st30" d="M245.5,291.8c-0.2-0.6-0.4-1.2-0.5-1.8c-0.1-1.2-0.8-1.5-1.8-0.9l0.8,3.1L245.5,291.8z"/>
			<path class="st25" d="M187.7,314.8l-1.5,0.4l0.9,3h0.1l1.4-0.4l0,0l-0.9-3.1V314.8z"/>
			<path class="st25" d="M205.3,334.2l0.4,1.5l3.2-0.9l-0.4-1.4h-0.1L205.3,334.2L205.3,334.2z"/>
			<path class="st25" d="M212.9,318.1c-0.3-1-0.5-2-0.8-3.1H212l-1.3,0.5l0.8,3l0,0L212.9,318.1z"/>
			<path class="st19" d="M307.2,250.8l-1.5,0.4l0.8,3l1.1-0.3l0.3-0.3L307.2,250.8z"/>
			<path class="st32" d="M212.9,318.1l0.5,1.5l1.5-0.3l-0.5-1.5L212.9,318.1z"/>
			<path class="st19" d="M291.9,246l0.6,1.6l1.5-0.4h0.1l-0.3-1.4l-0.2-0.3L291.9,246L291.9,246z"/>
			<path class="st18" d="M278.4,253.3l1.6-0.4l-0.5-1.6l-1.6,0.3l0,0L278.4,253.3z"/>
			<path class="st22" d="M251.5,293.7c-1.8,0.4-1.8,0.4-1.3,2.1l1.5-0.5L251.5,293.7z"/>
			<path class="st25" d="M252.7,291.6L251,292l0.5,1.7l1.4-0.4L252.7,291.6z"/>
			<path class="st23" d="M277.2,255.4l1.6-0.5l-0.4-1.6l0,0l-1.4,0.3l-0.3,0.2L277.2,255.4L277.2,255.4z"/>
			<path class="st20" d="M254.9,287.6c-1.2,0.2-2,0.6-1.3,2s0.1,0.1,0.1,0.2l1.6-0.8L254.9,287.6z"/>
			<path class="st19" d="M273.6,254.6l0.4,1.6l1.7-0.3h0.1l-0.6-1.6L273.6,254.6L273.6,254.6z"/>
			<path class="st22" d="M256.1,285.5c-1.7,0.5-1.7,0.5-1.2,2.2l1.5-0.7L256.1,285.5z"/>
			<path class="st19" d="M157.5,286.6l-1.7,0.4l0.6,1.6l1.4-0.3L157.5,286.6z"/>
			<path class="st19" d="M154.4,287.4l-1.8,0.5l0.6,1.6l1.4-0.4L154.4,287.4z"/>
			<path class="st22" d="M240.3,284.8c-0.5-1.7-0.5-1.7-2.2-1.3l0.4,1.5L240.3,284.8z"/>
			<path class="st19" d="M135,292.8l-1.8,0.5c0.2,0.5,0.4,1,0.6,1.5l1.5-0.3L135,292.8z"/>
			<path class="st19" d="M131.8,293.6l-1.7,0.5c0.1,0.5,0.3,1.1,0.5,1.6l1.4-0.4C132,294.7,131.9,294.2,131.8,293.6z"/>
			<path class="st19" d="M112.4,299l-1.8,0.5l0.6,1.5l1.5-0.3L112.4,299z"/>
			<path class="st19" d="M109.2,299.9l-1.7,0.5l0.5,1.5l1.5-0.4L109.2,299.9z"/>
			<path class="st22" d="M238.1,283.5c-0.1-1.4-0.8-1.8-2.1-1.2l0.6,1.5L238.1,283.5z"/>
			<path class="st20" d="M231.9,280l0.6,1.5l1.6-0.3V281l-0.5-1.6l-1.7,0.4L231.9,280z"/>
			<path class="st25" d="M250.5,278.2c0.4,1.9,0.4,1.9,2.2,1.3l-0.5-1.3l-0.3-0.2L250.5,278.2z"/>
			<path class="st22" d="M252.7,279.4c0.4,1.9,0.4,1.9,2.1,1.3l-0.5-1.3l-0.3-0.2L252.7,279.4z"/>
			<path class="st23" d="M294,247.2l0.5,1.3l0.3,0.2l1.4-0.3l0,0l-0.5-1.7l0,0L294,247.2L294,247.2z"/>
			<path class="st25" d="M242.4,273.6c0.3,1.8,0.3,1.8,2.1,1.2l-0.5-1.3l-0.3-0.2L242.4,273.6z"/>
			<path class="st18" d="M177.3,276l-1.7,0.5l0.5,1.6l0,0l1.4-0.4l0,0L177.3,276z"/>
			<path class="st22" d="M240.7,274.1l1.7-0.5l-0.5-1.3l-0.3-0.2l-1.4,0.3l0,0L240.7,274.1z"/>
			<path class="st18" d="M88.4,300.5c0.2,1.3,0.8,1.8,2.1,1.2h0.1l-0.5-1.7l0,0L88.4,300.5z"/>
			<path class="st20" d="M246.5,275.9l0.5,1.5l1.6-0.3l-0.5-1.5L246.5,275.9z"/>
			<path class="st20" d="M188.1,328.5l0.4,1.3h1.8C190.1,328.4,189.5,327.9,188.1,328.5L188.1,328.5z"/>
			<path class="st22" d="M244.5,274.8l0.4,1.5l1.6-0.4l-0.5-1.5L244.5,274.8z"/>
			<path class="st22" d="M248.6,277.1l0.5,1.6l1.5-0.4l-0.5-1.6L248.6,277.1z"/>
			<path class="st25" d="M236,282.3l-0.5-1.6l-1.3,0.3v0.2l0.4,1.6L236,282.3z"/>
			<path class="st25" d="M199.6,332.3l0.4,1.6l1.5-0.4l0,0l-0.4-1.7l-1.4,0.4C199.7,332.3,199.7,332.3,199.6,332.3L199.6,332.3z"/>
			<path class="st25" d="M193.8,330.5l0.5,1.5l1.5-0.5h0.1l-0.4-1.4l0,0L193.8,330.5L193.8,330.5z"/>
			<path class="st23" d="M102.7,301.7l-1.7,0.4l0.6,1.6l1.5-0.4L102.7,301.7z"/>
			<path class="st23" d="M118.8,297.2l-1.7,0.5l0.6,1.5l1.4-0.4L118.8,297.2z"/>
			<path class="st23" d="M125.3,295.5l-1.7,0.4l0.5,1.6l1.5-0.5L125.3,295.5z"/>
			<path class="st23" d="M141.4,291l-1.7,0.5l0.6,1.5l1.4-0.4L141.4,291z"/>
			<path class="st22" d="M240.6,286.1c0.3,0,0.7,0,0.8-0.2c0.3-0.3,0.5-0.6,0.7-1l-1-0.3c-0.3,0-0.6,0-0.8,0.2L240.6,286.1z"/>
			<path class="st23" d="M147.9,289.3l-1.7,0.4c0.1,0.5,0.3,1,0.5,1.5l1.5-0.4L147.9,289.3z"/>
			<path class="st23" d="M164,284.8l-1.7,0.5l0.5,1.5l1.5-0.4L164,284.8z"/>
			<path class="st23" d="M170.4,283l-1.7,0.5l0.6,1.5l1.5-0.4L170.4,283z"/>
			<path class="st22" d="M271.2,253.4c0.2,0.6,0.2,1.4,1.2,0.8l0.7,0.5h0.5l-0.4-1.7l0,0l-1.7,0.5h-0.3L271.2,253.4z"/>
			<path class="st18" d="M174.9,280l1.4-0.4l-0.2-1.5l0,0l-1.7,0.5l0,0l0.4,1.4H174.9z"/>
			<path class="st19" d="M275.7,255.9c0.1,1.1,0.5,1.7,1.9,1.1l-0.4-1.6l0,0l-1.4,0.4L275.7,255.9z"/>
			<path class="st30" d="M253.7,289.8c0-0.1-0.1-0.1-0.1-0.2s-1.3,1-0.9,2l1.4-0.4L253.7,289.8z"/>
			<path class="st18" d="M301.9,257l-0.4-1.4l-1.6,0.5l0.5,1.2L301.9,257z"/>
			<path class="st33" d="M174.9,280.6L174.9,280.6z"/>
			<path class="st23" d="M246.6,249.8l-0.4-0.3L246.6,249.8z"/>
			<path class="st28" d="M210.7,328.9l-0.2,0.3L210.7,328.9z"/>
			<path class="st34" d="M298.7,256.3L298.7,256.3z"/>
			<path class="st21" d="M243.7,273.3l0.3,0.2L243.7,273.3z"/>
			<path class="st28" d="M184.9,322.8L184.9,322.8z"/>
			<path class="st26" d="M307.9,253.6l-0.3,0.3L307.9,253.6z"/>
			<path class="st20" d="M91.2,303l-0.3-0.2L91.2,303z"/>
			<path class="st34" d="M294.8,248.7l-0.3-0.2L294.8,248.7z"/>
			<path class="st21" d="M254,279.2l0.3,0.2L254,279.2z"/>
			<path class="st31" d="M76.3,293.6l0.2-0.3L76.3,293.6z"/>
			<path class="st21" d="M251.9,278l0.3,0.2L251.9,278z"/>
			<path class="st21" d="M241.6,272.1l0.3,0.2L241.6,272.1z"/>
			<path class="st31" d="M222.6,283.9l-0.2,0.3L222.6,283.9z"/>
			<path class="st19" d="M289.5,224.1l-1.7,0.5L246,236.2l-1.7,0.4l0.5,1.6h0.1l45.1-12.4L289.5,224.1z"/>
			<path class="st26" d="M78.2,263.2l-1.3,0.3l-0.7-1.2l-3.2,0.9l0.5,1.5l1.8-0.5c0.9-0.3,1.4-0.1,1.6,0.9c0.2,1.2,0.6,2.4,1,3.6
				c0.8,3,0.8,3-2.3,3.8l0.5,1.6l3.1-0.8v-1.5l1.3-0.3l0,0C79.7,268.8,79,266.1,78.2,263.2L78.2,263.2z"/>
			<path class="st23" d="M105.9,274.7l-0.4-1.5c-0.3-0.5-0.6-1-0.8-1.5l-1.4,0.4l0.2,1.5l-1.4,0.4l-0.5-1.4l-1.5,0.3l0.2,1.5
				l-1.5,0.4l-0.5-1.3l-1.5,0.4l0.3,1.5l0.4,1.6L105.9,274.7z"/>
			<path class="st26" d="M299.8,223.1h-0.2l-1.5,0.4l-0.5-1.6l0,0l-1.7,0.5l0,0l1.4,4.9l1.6-0.4l0.9,3h1.5L299.8,223.1z"/>
			<path class="st18" d="M78.2,263.2c0.8,2.8,1.5,5.5,2.3,8.2l1.5-0.5l-2.1-7.6l-0.3-0.3L78.2,263.2z"/>
			<path class="st20" d="M97.5,277l-0.4-1.6l-1.6,0.3l-1.5,0.5l-1.7,0.4l-1.6,0.5l0,0l0.4,1.7L97.5,277z"/>
			<path class="st19" d="M91.1,278.8l-0.4-1.7l-1.5,0.5l-0.6-1.5l-1.2,0.3c0,0.1,0,0.1-0.1,0.2c0.8,2.6-1.7,1.8-2.7,2.5v0.3l0.2,1.1
				l0,0L91.1,278.8z"/>
			<path class="st28" d="M289.5,224.1l0.5,1.7l0,0l1.6-0.4l-0.3-1.8l4.6-1.2l0,0l-0.4-1.7l0,0l-4.8,1.3l-0.2,0.3
				C291.1,223.5,290.7,224,289.5,224.1L289.5,224.1z"/>
			<path class="st27" d="M239.6,237.9l-0.6-1.5l-6.3,1.8l0.3,1.5c0,0.1,0,0.1,0.1,0.1l6.2-1.8L239.6,237.9z"/>
			<path class="st18" d="M299.8,223.1l1.5,6.7l1.6-0.7l0,0l-1.7-6.1l-0.3-0.2L299.8,223.1z"/>
			<path class="st19" d="M171.3,254.9l6.5-1.8l-0.4-1.4l-6.5,1.8L171.3,254.9z"/>
			<path class="st19" d="M290.7,222l4.8-1.3l-0.4-1.4l-4.7,1.3L290.7,222z"/>
			<path class="st29" d="M239.6,237.9h-0.3l1.1,3.3l1.6-0.5l-0.8-3.2L239.6,237.9z"/>
			<path class="st26" d="M90.7,277.1l1.6-0.5l-0.4-1.4l-1.6,0.5L90.7,277.1z"/>
			<path class="st23" d="M295.5,220.7l0.4,1.7l1.7-0.5l-0.5-1.4L295.5,220.7z"/>
			<path class="st18" d="M179.4,252.7l1.6-0.5l-0.4-1.1l-0.3-0.2l-1.3,0.4L179.4,252.7z"/>
			<path class="st18" d="M205.2,245.5l1.6-0.4l-0.4-1.4l-1.6,0.5L205.2,245.5z"/>
			<path class="st18" d="M227.7,239.3l1.6-0.4l-0.3-1.4l-1.7,0.3L227.7,239.3z"/>
			<path class="st19" d="M145.5,262l1.6-0.4l-0.3-1.4l-1.6,0.4L145.5,262z"/>
			<path class="st18" d="M123,268.2l1.6-0.4l-0.4-1.4l-1.6,0.4L123,268.2z"/>
			<path class="st19" d="M297.6,221.9l0.5,1.6l1.5-0.4l-0.6-1.5L297.6,221.9z"/>
			<path class="st18" d="M182.6,251.8l1.6-0.5l-0.4-1.4l-1.3,0.4l-0.2,0.3L182.6,251.8z"/>
			<path class="st18" d="M201.9,246.5l1.6-0.5l-0.3-1.1l-0.3-0.2l-1.4,0.3L201.9,246.5z"/>
			<path class="st18" d="M224.5,240.2l1.6-0.4l-0.3-1.1l-0.4-0.2l-1.3,0.3L224.5,240.2z"/>
			<path class="st19" d="M208.4,244.7l1.6-0.5l-0.4-1.4l-1.6,0.5L208.4,244.7z"/>
			<path class="st19" d="M198.7,247.3l1.6-0.4l-0.4-1.4l-1.5,0.4L198.7,247.3z"/>
			<path class="st19" d="M126.2,267.3l1.6-0.4l-0.4-1.4l-1.6,0.4L126.2,267.3z"/>
			<path class="st19" d="M148.7,261.1l1.6-0.4l-0.4-1.4l-1.6,0.4L148.7,261.1z"/>
			<path class="st19" d="M168.1,255.8l1.6-0.5l-0.4-1.4l-1.6,0.5L168.1,255.8z"/>
			<path class="st19" d="M185.8,250.9l1.6-0.5l-0.4-1.3l-1.6,0.4L185.8,250.9z"/>
			<path class="st19" d="M116.5,270l1.6-0.5l-0.4-1.3l-1.5,0.4L116.5,270z"/>
			<path class="st19" d="M94,276.2l1.5-0.5l-0.4-1.3l-1.5,0.4L94,276.2z"/>
			<path class="st19" d="M221.3,241.1l1.6-0.4l-0.4-1.4l-1.6,0.4L221.3,241.1z"/>
			<path class="st19" d="M132.6,265.5l1.6-0.4l-0.4-1.4l-1.5,0.5L132.6,265.5z"/>
			<path class="st19" d="M139.1,263.7l1.5-0.4l-0.3-1.3l-1.6,0.4L139.1,263.7z"/>
			<path class="st19" d="M110.1,271.7l1.5-0.4l-0.3-1.3l-1.6,0.4L110.1,271.7z"/>
			<path class="st19" d="M161.7,257.5l1.5-0.4l-0.4-1.3l-1.5,0.4L161.7,257.5z"/>
			<path class="st19" d="M214.9,242.9l1.5-0.5l-0.4-1.3l-1.5,0.4L214.9,242.9z"/>
			<path class="st18" d="M289.5,224.1c1.2-0.1,1.6-0.6,1-1.8l-1.4,0.5L289.5,224.1z"/>
			<path class="st19" d="M192.3,249.1l1.5-0.4l-0.3-1.4l-1.6,0.4L192.3,249.1z"/>
			<path class="st19" d="M155.2,259.3l1.6-0.4l-0.4-1.4l-1.6,0.5L155.2,259.3z"/>
			<path class="st20" d="M202.9,244.7l0.3,0.2L202.9,244.7z"/>
			<path class="st20" d="M182.3,250.6l0.2-0.3L182.3,250.6z"/>
			<path class="st20" d="M180.3,250.9l0.3,0.2L180.3,250.9z"/>
			<path class="st20" d="M84.5,279.4L84.5,279.4z"/>
			<path class="st20" d="M225.4,238.5l0.4,0.2L225.4,238.5z"/>
			<path class="st26" d="M79.6,263l0.3,0.3L79.6,263z"/>
			<path class="st26" d="M300.9,222.8l0.3,0.2L300.9,222.8z"/>
			<path class="st28" d="M91.1,278.8l-6.4,1.7l0.4,1.4c1,0.5,1.4,1.7,0.9,2.7c0,0,0,0.1-0.1,0.1l-1,1.5h-0.4l3.9,14.4l1.7-0.5
				l-0.9-3.3l-0.5-1.7l-0.4-1.4l-1.8-6.5l1.6-0.7c-0.5-1.1,0-1.5,1-1.7l80.9-22.4l1.4-0.4l-0.5-1.6l-83.6,23l-0.4-1.7l1.9-0.5
				l81.7-22.5l-0.5-1.4l-1.7,0.5l-60.6,16.7l-1.8,0.2l-8.4,2.3L91.1,278.8z"/>
			<path class="st20" d="M83.2,300.2l1.7-0.6l-1.7-6.3l1.3-0.5c-0.3-1-0.6-2.1-0.8-3.1s-0.8-1.7-2-1.2l-1.5,0.5l0.4,1.4L82,290
				l0.5,1.7l-1.6,0.3l-0.3-1.6l-1.6,0.4l2.2,8l1.6-0.2L83.2,300.2L83.2,300.2z"/>
			<path class="st25" d="M75.6,272.5c3.1-0.8,3.1-0.8,2.3-3.8c-0.4-1.2-0.8-2.4-1-3.6c-0.2-1-0.7-1.2-1.6-0.9l-1.8,0.5L75.6,272.5z"
				/>
			<path class="st35" d="M79.3,285.6l0.4,1.5l2.9-0.8l-3-11.2l-1.3,0.4l2.6,9.6L79.3,285.6z"/>
			<path class="st36" d="M79.3,285.6l1.6-0.5l-2.6-9.6l-1.7,0.5L79.3,285.6z"/>
			<path class="st36" d="M84.5,292.8l-1.3,0.5l1.7,6.3l1.8-0.5L84.5,292.8z"/>
			<path class="st26" d="M85.9,284.7c0.6-0.9,0.3-2.2-0.7-2.7c0,0-0.1,0-0.1-0.1C85.4,282.8,85.6,283.8,85.9,284.7z"/>
			<path class="st26" d="M302.9,229.1l-1.6,0.7l0,0l0.8,3l0.9,3.1l0.9,3.3l0.9,3.1l-1.5,0.4l-0.2,0.3l0.7,1.4h1.5l1.6-0.8
				L302.9,229.1z"/>
			<path class="st24" d="M224.7,278.5c1.6-0.4,1.7-0.6,1.1-2.1c1.4-0.1,1.6-0.8,1.2-2c-0.4-1-0.7-2-0.9-3.1l-1.6,0.4h-0.1l-0.5-1.7
				l-11.2,3.1l-1.2-4.8l-0.5-1.6l11.2-3l0.3,1.3l-1.3,0.6l0.4,1.5c-0.5,0.4-1.8,0-1.4,1.2c0.3,0.4,0.7,0.6,1.1,0.7
				c1.3-0.4,0.3-1.3,0.3-1.9s1.4-0.3,1.4-1.3s0.6-0.8,1.2-1.4l-0.4-1.2c1.4-0.1,1.9-0.8,1.3-2.1l0,0c1.4-0.2,1.8-0.9,1.2-2.2l0,0
				l1.3-0.4l-0.3-1.6l1.6-0.5l1.5-0.4c-0.6-1.7,0.7-1.7,1.7-2c2.8-0.7,2.8-0.8,3.6,2.1c0.3,1,0.6,2,0.8,3s0.8,1.8-0.4,2.6
				s0,0.9,0,1.4l-3.3,1c-1.7,0.4-1.7,0.4-1.2,2.1l0,0c-0.6,0.3-1.8-0.1-1.5,1.3c0.1,0.2,0.2,0.5,0.2,0.8l-1.3,0.4l0.4,1.6
				c-1,0.3-2,0.5-1.2,1.9l1.8,6.6l-4.8,1.3L224.7,278.5L224.7,278.5z M226.6,265.7c0.1,1.8,0.1,1.8,1.8,1.2l-0.4-1.6
				c0.4,0,0.8-0.1,1.1-0.3c0.2-0.2,0.4-0.7,0.3-0.9c-0.3-0.3-0.6-0.5-1-0.6c-0.2,0-0.6,0.5-0.6,0.7c0,0.4,0,0.8,0.2,1.1L226.6,265.7
				z"/>
			<path class="st37" d="M170,262.4l-80.9,22.3c-1,0.2-1.5,0.6-1,1.7l-1.6,0.7l1.8,6.5l1.6-0.5l-0.2-1.6l2.7-0.9v-1.7l1.5-0.4
				c-0.2-0.5-0.2-1.1-0.4-1.7s-0.1-1.8,1.1-2.1c3.4-0.8,6.7-1.8,10-2.7c1.5-0.4,1.6-0.3,1.7,1.3l1.6-0.4l1.7-0.5
				c-0.4-1.7-0.4-1.7,1.3-2l11.1-3.1l1.6-0.4l0.6,1.4l1.6-0.2l0.4,1.5l1.7-0.4l1.4-0.4l1.7-0.5c-0.1-0.8-0.9-1.8,0.7-1.9l0.5-0.2
				c-0.5-1.7-0.5-1.7,1.2-2.1l11.1-3c1.7-0.6,1.7-0.6,2.2,1.1l1.5-0.5v-1.6l1.5-0.4l11.1-3.1l0.5,1.6c1.2-0.6,1.9-0.3,2.1,1.2
				l1.7-0.4l4.7-1.3l1.6-0.5L170,262.4z"/>
			<path class="st31" d="M223.8,263.2c1.4-0.1,1.9-0.8,1.3-2.1l-48.2,13.2l0.4,1.7l0.2,1.7l1.6-0.3l3.9,14.3l-1.5,0.6l0.5,1.3
				l40.3-11.1l-0.5-1.4l-6.3,1.8l-8.1,2.2c-1.3,0.6-2,0.2-2.1-1.2l-1.5,0.4v1.7l-0.6,0.2L186,291c-0.9,0.3-1.3,0.1-1.5-0.9
				l-3.3-11.9c-0.2-0.8-0.4-1.3-1.4-1.3s-0.6-0.5-0.9-0.8s0.5-0.6,0.8-0.7l5.4-1.5l25.9-7.2l11.2-3L223.8,263.2z"/>
			<path class="st35" d="M170.5,258.7l-81.7,22.5l-1.9,0.5l0.4,1.7l83.6-23L170.5,258.7z"/>
			<path class="st38" d="M228.6,242.7c-0.4-1.6-0.4-1.6-2.2-1.2l-19.7,5.5l-33.3,9.1c-1.2,0.3-1.5,0.7-1.1,2
				c1.3,4.3,2.4,8.8,3.6,13.2c0.1,0.4,0.3,0.9,0.5,1.3l1.4-0.3c-1.2-4.3-2.3-8.5-3.5-12.7c-0.5-1.8-0.5-1.8,1.3-2.3L228.6,242.7z"/>
			<path class="st39" d="M228.6,242.7l-53,14.6c-1.8,0.5-1.8,0.5-1.3,2.3c1.2,4.2,2.3,8.4,3.5,12.7l1.6-0.5
				c-0.1-0.6-0.3-1.1-0.4-1.7l-0.4-1.3l-2.2-8.1l-0.5-1.7l1.7-0.5l22.4-6.1l29.1-8.1L228.6,242.7z"/>
			<path class="st24" d="M229.1,244.3l-29.1,8.1l-22.4,6.1l-1.7,0.5l0.5,1.7l30.6-8.5l1.7-0.4l12.8-3.6l4.8-1.3l3.3-0.8L229.1,244.3
				z"/>
			<path class="st37" d="M203.7,265.1l20.9-5.7l0,0l-0.9-3l-1.7,0.3l-0.4-1.6l-9.8,2.7l-3,0.9l0,0l0.4,1.7l-1.6,0.4l0,0l0.3,1.4
				l-4.7,1.3L203.7,265.1z"/>
			<path class="st37" d="M161.6,282l0.4,1.5l11.1-3.1l-0.2-1.3l1.5-0.5l0,0l-2.7-9.7l-1.6,0.4l0,0l0.8,3h-0.6
				c-0.2,0.6-0.7,1.1-0.7,1.7c0.1,0.8,0.3,1.5,0.6,2.2l-1.4,0.5c0.5,1.2,0.2,1.9-1.2,2l-1.8,0.5l-1.6,0.4l-1.6,0.6
				C163,281.1,162.9,281.9,161.6,282z"/>
			<path class="st40" d="M234.4,251.6c-0.8-3.4-0.8-3.4-4.2-2.5l-3.1,0.9l-0.4-1.7l0,0c-3.1,0.9-3.1,0.9-2.3,4l0.2,0.6
				c0.8,3,0.8,3,3.9,2.1l-0.4-1.7L234.4,251.6z"/>
			<path class="st19" d="M240.4,241.3l-1.1-3.3l-6.2,1.8l0.2,1.5l-1.2,0.4c-1.7,0.5-1.7,0.5-1.3,2.3s0.3,1,0.5,1.5l3-0.8l1.7-0.5
				h0.3l4.4-1.3L240.4,241.3z"/>
			<path class="st31" d="M234.4,251.6l-6.3,1.7l0.4,1.7l0.4,1.4l1.5-0.4c-0.6-1.7,0.7-1.7,1.7-2c2.8-0.7,2.8-0.8,3.6,2.1
				c0.3,1,0.6,2,0.8,3s0.8,1.8-0.4,2.6s0,0.9,0,1.4c3.1-0.8,3.1-0.8,2.3-3.8l-2.3-8.1L234.4,251.6z"/>
			<path class="st36" d="M203.7,265.1l-0.5-1.6l-19.4,5.4l0.4,1.6L203.7,265.1z"/>
			<path class="st39" d="M237.4,249l6.3-1.8l-0.9-3.3l-6.3,1.7L237.4,249z"/>
			<path class="st40" d="M167.6,278.6c1.4-0.1,1.7-0.8,1.2-2c-0.5-1-0.9-2-1.2-3.1c-0.9-3.3-0.9-3.3,2.5-4.2l0,0l-0.5-1.6l-4.7,1.3
				l0.4,1.7l1.8,6.3L167.6,278.6z"/>
			<path class="st33" d="M171.7,268.9l2.7,9.7l1.7-0.5l-0.5-1.6l-1.2-3.5l-1.2-4.4L171.7,268.9z"/>
			<path class="st38" d="M236.5,245.6l6.3-1.7l-0.3-1.3l-1.8,0.3l-4.4,1.3l-0.2,0.3L236.5,245.6z"/>
			<path class="st37" d="M184.2,270.5l-0.4-1.6l-3.2,0.8l-1.6,0.4l0.4,1.7L184.2,270.5z"/>
			<path class="st33" d="M170,262.4l1.2,4.8l1.8-0.5l-1.6-4.7L170,262.4z"/>
			<path class="st37" d="M229.6,246.1l-3.3,0.8l0.4,1.4l0,0l3.2-0.9L229.6,246.1z"/>
			<path class="st24" d="M234.3,244.7l-3,0.8l0.3,1.4l3-0.9L234.3,244.7z"/>
			<path class="st31" d="M232.8,264.1c-1.7,0.4-1.7,0.4-1.2,2.1l1.6-0.5h0.3L232.8,264.1z"/>
			<path class="st31" d="M225.1,261.1c1.4-0.2,1.8-0.9,1.2-2.2l-1.7,0.5l0,0L225.1,261.1z"/>
			<path class="st39" d="M236.1,244.5l0.2-0.3H236L236.1,244.5z"/>
			<path class="st24" d="M234.2,281l1.3-0.3l1.6-0.4l-0.2-1.7l1.4-0.6l-0.2-1.4l0.3,0.2c0.2-0.7,0.6-1.4,1.1-2
				c0.2-0.4,0.8-0.5,1.2-0.7l-0.5-1.6l-1.4,0.4l-1.3-4.8c-0.1-1.5-0.9-1.7-2.2-1.2l-1.6,0.5l0,0c0.6,1.3,0.2,2-1.2,2.1
				c0,0.6,0.1,1.6-0.1,1.7s-0.7,0.9-0.5,1.6l1.8,6.6L234.2,281z"/>
			<path class="st37" d="M122.8,292.7l0.5,1.4l17.4-4.8l-0.2-1.4l0,0c-1.3,0.6-2,0.2-2.2-1.2l-1.5,0.4l-1.6,0.4l-1.7,0.5l-1.6,0.4
				l-1.5,0.4l-1.6,0.5l-1.7,0.5l-1.6,0.4l-1.4,0.5C124.7,292,124.2,292.7,122.8,292.7L122.8,292.7z"/>
			<path class="st37" d="M106.7,297.2l0.5,1.4l11-3.1l-0.3-1.4l0,0c-1.2,0.4-1.8-0.1-1.9-1.3h-0.3l-1.4,0.4l-1.6,0.4l-1.8,0.5
				l-1.6,0.4l-1.4,0.5c0.7,1.3,0.2,2-1.2,2.1L106.7,297.2z"/>
			<path class="st37" d="M145.4,286.5l0.5,1.4l10.9-3v-1.5h-0.1c-1.2,0.6-2,0.3-2.1-1.2l-1.5,0.3l-1.6,0.5l-1.7,0.4l-1.6,0.5
				l-1.4,0.4C147.3,285.6,146.9,286.3,145.4,286.5L145.4,286.5z"/>
			<path class="st35" d="M89.2,296.7l0.9,3.3l0,0l1.7-0.4l4.7-1.3l0,0l-0.5-1.7l-4.6,1.3l-0.6-1.6L89.2,296.7z"/>
			<path class="st37" d="M96.5,298.3l0.8,2.9l4.7-1.2l-0.3-1.8l0,0l-1.4,0.4l-0.5-1.3l-1.7,0.3L96.5,298.3L96.5,298.3z"/>
			<path class="st28" d="M91.8,299.6l-1.7,0.4l0.5,1.7l1.5-0.7L91.8,299.6z"/>
			<path class="st33" d="M174.4,278.6l-1.5,0.5l0.2,1.3l1.7-0.4L174.4,278.6z"/>
			<path class="st22" d="M161.1,280.5l0.4,1.3v0.2c1.3-0.1,1.4-0.9,1-1.9h-0.1L161.1,280.5z"/>
			<path class="st34" d="M188.2,328.5c1.3-0.7,1.9-0.2,2.1,1.2l3.1-0.9l-0.5-1.6c-0.6,0-1.5,0.9-1.8-0.4s0.3-0.9,0.6-1
				s0.9,0.8,1.2,1.4l1.5-0.4v0.3l3.3,2c1-0.4,1.5,0.3,1.6,1.4l0,0c1.3-0.5,2-0.1,2.2,1.2c1.3-0.7,1.6,0.3,1.8,1.3
				c1.3-0.6,2-0.2,2.1,1.2l3.1-0.8l-0.9-3.3l1.7-0.5l-1-3.3l1.8-0.2l-0.9-3.3l1.6-0.5c-0.1-0.6-0.2-1.1-0.4-1.7
				c-0.6-1.3-0.2-2,1.2-2.1l-0.8-3l1.3-0.5c-0.3-1.1-0.5-2.2-0.9-3.3s-0.2-2,1.2-2.2c-1.7-6.4-3.5-12.8-5.3-19.2l-1.6,0.5l4.4,16.1
				l-1.4,0.4l0.5,1.7c0.1,0.5,0.2,1,0.4,1.5c0.6,1.3,0.1,1.9-1.3,2l0.5,1.7c0.6,1.3,0.3,2-1.2,2.1c0.6,1.3,0.2,2-1.2,2.2
				c0.3,0.8,0.5,1.5,0.6,2.3c0,0.4-0.3,0.7-0.6,0.9c-0.3,0-0.9-0.2-1-0.5s-0.4-1.4-0.7-2.3l1.7-0.4c-0.2-0.6-0.3-1.2-0.5-1.7
				s-0.3-2,1.2-2.2l-1.3-4.7l1.7-0.5c-1.6-5.9-3.3-11.8-4.9-17.8l-8.1,2.2l3.5,12.9l-1.6,0.4l0.4,1.7l0.9,3.3l-1.6,0.5l0.4,1.4
				c0.3,1,0.6,1.9-1,2.1c0.7,1.3,0.2,1.9-1.2,2.1c0.2,0.8,0.5,1.6,0.7,2.5s-0.4,0.7-0.5,1s-1-0.3-1.1-0.6c-0.4-0.8-0.6-1.6-0.8-2.5
				l1.7-0.4c-0.1-0.5-0.2-1.1-0.4-1.6c-0.6-1.3-0.3-2.1,1.2-2.2l-1.3-4.7l1.4-0.4l-4-14.5l-1.6,0.4c-1.2,0.1-1.5,0.7-1.1,1.9
				c1,3.2,1.8,6.4,2.6,9.6l1,3.4l-1.7,0.5l0,0c0.2,0.5,0.3,1.1,0.5,1.6s0.3,2-1.2,2.2l0,0c0.1,0.4,0.2,0.9,0.4,1.3
				c0.5,1.3,0.3,2.1-1.2,2.2l0,0l0.9,3.3l-1.4,0.4l0,0c0.1,0.5,0.2,0.9,0.4,1.4c0.5,1.2,0.2,2-1.3,2.1l0,0L188.2,328.5z"/>
			<path class="st33" d="M194.2,293.8l8.1-2.2l1.7-0.4l1.4-0.4l1.6-0.5l-0.4-1.7l-20.9,5.8l4.4,16.2l1.7-0.5l-1-3.4
				c-0.8-3.2-1.6-6.4-2.6-9.6c-0.4-1.2-0.1-1.8,1.1-1.9l1.6-0.4l1.7-0.5L194.2,293.8z"/>
			<path class="st41" d="M295.9,222.4l-4.6,1.2l0.3,1.8c0.4,1.1,0.7,2.3,1,3.4s1.1,4.5,1.7,6.7s-0.2,1.6-1.2,1.7l0,0l0.3,1.3
				l-4.6,1.8l0.2,1.4l0.4,1.6c1.3-0.6,2-0.2,2.2,1.2l0,0c1-0.3,1.9-0.6,2,1l0.2,0.3l1.5-0.5l0.4,1.4l0,0c1.3-0.6,2-0.2,2.2,1.2
				l1.4-0.3l2.2,8l3.3-0.9l-1.2-4.8l0,0l-1.6,0.4l-1-3.3l1.6-0.4l0,0l-0.8-3.2h-0.2l-1.5,0.4l-0.8-3.1l1.6-0.4l0,0L300,237h-0.1
				l-1.6,0.5l-0.8-3.1l1.6-0.4l0,0l-0.9-3.4l0,0l-1.6,0.4l-0.9-3l1.6-0.4l0,0L295.9,222.4z"/>
			<path class="st23" d="M290,225.8l-45.1,12.4l0.4,1.7l1.7-0.5c13.4-3.7,26.9-7.3,40.3-11.1c1.2-0.4,1.7,0,1.9,1.2s1.2,4.3,1.8,6.5
				l0.4,1.4l1.7-0.2l0,0L290,225.8z"/>
			<path class="st29" d="M247,239.4l-1.7,0.5l2.7,9.7l43.4-12.2L291,236l-2.2,0.6l-38.1,10.5c-1.2,0.4-1.7,0.2-1.9-1.1
				S247.6,241.6,247,239.4z"/>
			<path class="st26" d="M291.6,244.5c-0.2-1.4-0.9-1.8-2.2-1.2l-14.5,4c-0.6,0.1-1.3,0.7-1.6-0.5s0.6-0.9,1.2-1.1l0,0l-0.3-1.6
				c-3.3,0.6-3.3,0.6-2.4,3.8c0.1,0.7,0.3,1.3,0.5,2L291.6,244.5z"/>
			<path class="st22" d="M260.9,253c0.9-0.2,1.8-0.8,2.1,0.8l1.5-0.2l0.7,1.4l1.5-0.2l0.6,1.4l2.9-0.8c-0.1-0.5-0.2-1.1-0.4-1.6l0,0
				c-1,0.4-1.9,0.7-2-0.9c-1.1,0.2-1.8-0.1-1.9-1.3h-0.2l-1.5,0.3c-0.2-0.7-0.4-1.4-0.5-2.1c-0.2-0.9-0.6-1.2-1.5-0.9l-3.6,1
				l0.4,1.5h1.5L260.9,253L260.9,253z"/>
			<path class="st26" d="M258.6,250l3.6-1c0.9-0.3,1.3,0,1.5,0.9c0.1,0.7,0.3,1.4,0.5,2.1l1.5-0.3c-0.3-1.2-0.5-2.4-0.8-3.5
				s-0.8-1.5-2.1-1.2s-5.5,1.6-8.3,2.4l-1.3,0.4l0.4,1.6l3.3-0.9L258.6,250z"/>
			<path class="st36" d="M270.7,250.3l-1.3-4.8c-3.1,0.2-3.5,0.6-2.9,2.4l1.6-0.5l0.9,3.3L270.7,250.3L270.7,250.3z"/>
			<path class="st35" d="M269,250.7l-0.9-3.3l-1.6,0.5l0.8,3.3l0,0l1.7-0.4V250.7z"/>
			<path class="st36" d="M272.7,251.3l-0.4-1.5l-1.6,0.5l0,0l0.4,1.3L272.7,251.3z"/>
			<path class="st26" d="M265.9,251.6c0.1,1.2,0.8,1.5,1.9,1.3l0,0l-0.5-1.7l0,0L265.9,251.6z"/>
			<path class="st24" d="M207.4,285.1l8.1-2.2l-0.4-1.7l0,0c-1.8,0.5-1.8,0.5-2.2-1.3l0,0l-1.6,0.4l-1.3-4.7l1.6-0.4l0,0l-0.5-1.7
				l0,0l-1.6,0.4l-0.9-3.2l-0.4-1.5l-1.7,0.5l0.4,1.4l2.6,9.7l-1.4,0.4c0.7,1.3,0.3,2-1.2,2.1L207.4,285.1z"/>
			<path class="st19" d="M216.3,273.9l0.6,1.4l1.5-0.2l0.4,1.5l-1.4,0.5l0.2,1.5l-1.4,0.6l0.3,1.6l3.3-1l-0.4-1.5l1.5-0.6l-0.2-1.5
				l1.4-0.6l-0.3-1.4l1.4-0.7l-0.3-1.4L216.3,273.9z"/>
			<path class="st21" d="M233.7,279.4l-1.8-6.6c-0.2-0.7-0.4-1.2,0.5-1.6s0.1-1.1,0.1-1.7l0,0c-1.4,0.7-1.7-0.2-1.9-1.3h-0.3
				l-1.3,0.4l0.4,1.6l0,0c0.6-0.1,1.4-0.8,1.6,0.3s-0.8,0.7-1.2,1.1l0,0l2.2,8.1L233.7,279.4z"/>
			<path class="st31" d="M229.4,270.3c-1,0.3-2,0.5-1.2,1.9l1.6-0.5l0,0L229.4,270.3L229.4,270.3z"/>
			<path class="st36" d="M276.3,252l-0.5-1.6l-3.1,0.9l0,0l0.5,1.6l0,0l3-0.8L276.3,252z"/>
			<path class="st26" d="M293.6,245.5c-0.1-1.6-1-1.3-2-1l0.3,1.4L293.6,245.5z"/>
			<path class="st34" d="M277,253.6l1.4-0.3l-0.5-1.7l-0.8,0.3L277,253.6z"/>
			<path class="st24" d="M277,253.6v-1.7h-0.9l0.5,1.6l0,0L277,253.6z"/>
			<path class="st19" d="M271.2,253.4h0.3L271,252l-1.6,0.4l0.4,1.4l0,0L271.2,253.4z"/>
			<path class="st36" d="M189.4,314.4c1.5-0.2,1.8-0.9,1.2-2.2s-0.3-1.1-0.5-1.6l-1.6,0.4L189.4,314.4z"/>
			<path class="st23" d="M258.6,250l-1.7,0.5l0.5,1.7l0,0l1.2-0.4c0.5,1.1,1.1,1.8,2.3,1.2l-0.4-1.5H259L258.6,250z"/>
			<path class="st27" d="M257.4,252.2l-1.7,0.4c0.1,0.8,0.3,1.5,0.6,2.2c0.2,0.3,0.8,0.4,1.1,0.7s0.6-0.8,0.5-1.1
				C257.8,253.6,257.7,252.9,257.4,252.2L257.4,252.2z"/>
			<path class="st20" d="M302.6,246.6l1.7-0.3l-0.4-1.6v-0.2l-0.7-1.4l-1.3,0.3L302.6,246.6z"/>
			<path class="st28" d="M303.8,244.5v0.2l1.5,0.2v-0.5L303.8,244.5z"/>
			<path class="st22" d="M233.2,265.7l-1.6,0.5l0,0l0.2,0.8l0.2,0.8l1.7-0.4l0,0L233.2,265.7z"/>
			<path class="st26" d="M297.9,247.9c-0.2-1.4-0.9-1.8-2.2-1.2l0.5,1.7l1.4-0.4L297.9,247.9z"/>
			<path class="st33" d="M187.2,325.1c1.5-0.1,1.8-0.9,1.3-2.1c-0.2-0.5-0.3-0.9-0.4-1.4l-1.7,0.5L187.2,325.1z"/>
			<path class="st33" d="M188.1,321.6l1.4-0.4l-0.9-3.3l-1.4,0.4L188.1,321.6z"/>
			<path class="st33" d="M188.6,317.9c1.5-0.1,1.7-0.9,1.2-2.2c-0.2-0.4-0.3-0.9-0.4-1.3l-1.7,0.4L188.6,317.9z"/>
			<path class="st31" d="M203.2,333c-0.2-1-0.5-2-1.8-1.3h-0.3l0.4,1.7L203.2,333z"/>
			<path class="st33" d="M192.9,327.2l0.5,1.6l0,0c1.3-0.6,2-0.2,2.1,1.3l0,0c1-0.4,1.9-0.5,2,0.9l1.7-0.5c-0.1-1.1-0.6-1.8-1.6-1.4
				l-3.3-2v-0.3l-1.5,0.4H192.9z"/>
			<path class="st33" d="M201.1,331.8h0.3c-0.2-1.3-0.9-1.7-2.2-1.2l0.5,1.7L201.1,331.8z"/>
			<path class="st34" d="M197.5,331c-0.1-1.4-1-1.3-2-0.9l0.4,1.4L197.5,331z"/>
			<path class="st34" d="M195.5,330.1c-0.1-1.5-0.8-1.9-2.1-1.3l0.4,1.7L195.5,330.1z"/>
			<path class="st34" d="M295.7,246.7l-0.4-1.4l-1.5,0.5l0.3,1.4L295.7,246.7z"/>
			<path class="st24" d="M275.8,255.8l1.4-0.4l-0.5-1.6l0,0l-1.5,0.5L275.8,255.8z"/>
			<path class="st34" d="M275.2,254.2l1.5-0.5l-0.5-1.6l-3,0.8l0.4,1.7L275.2,254.2z"/>
			<path class="st34" d="M269.4,252.4l1.6-0.4l0.5,1.4l1.7-0.5l-0.5-1.6l-1.6,0.3l-0.4-1.3l-1.7,0.4l0,0l0.5,1.6L269.4,252.4z"/>
			<path class="st41" d="M302.1,232.9l-0.8-3h-1.5l0.9,3.4L302.1,232.9z"/>
			<path class="st19" d="M290,225.8l3.1,11.4c1-0.1,1.4-0.7,1.2-1.7s-1.1-4.4-1.7-6.7s-0.6-2.3-1-3.4L290,225.8z"/>
			<path class="st23" d="M89.9,293.1l-1.6,0.5l0.4,1.4l1.7-0.4c1.2-0.5,1.9-0.3,2.1,1.1l1.3-0.4c-0.5-3-0.5-3-3.2-2.3L89.9,293.1z"
				/>
			<path class="st19" d="M92.5,295.7c-0.2-1.4-0.9-1.6-2.1-1.1l-1.7,0.4l0.5,1.7l1.6-0.4L92.5,295.7z"/>
			<path class="st41" d="M303.9,239.3L303,236l-1.5,0.4h0.1l0.9,3.4l0,0L303.9,239.3z"/>
			<path class="st20" d="M303.9,239.3l-1.4,0.5l0.8,3l1.5-0.4L303.9,239.3z"/>
			<path class="st20" d="M301.5,236.4l1.5-0.4l-0.9-3.1l-1.4,0.4l0,0L301.5,236.4z"/>
			<path class="st22" d="M206.5,269.8l1.7-0.5l3.3-1l-0.5-1.6l-25.9,7.2c0.1,1.4,0.9,1.7,2.1,1.2L206.5,269.8z"/>
			<path class="st30" d="M224.6,259.4l1.7-0.5l0,0c-0.4-1-0.7-1.9,1-2l1.6-0.5l-0.4-1.4c-3.1,0.9-3.1,0.9-3.9-2.1l-0.2-0.6
				c-0.8-3.1-0.8-3.1,2.3-4l-0.4-1.4l-4.8,1.3l0.4,1.4l1.8,6.8L224.6,259.4z"/>
			<path class="st22" d="M222.9,272.1l1.5-0.4l-0.5-1.7l-11.2,3.1l-1.6,0.5l0.5,1.7l4.7-1.4L222.9,272.1z"/>
			<path class="st42" d="M211.1,273.6l1.6-0.5l-1.2-4.8l-3.3,1l0.4,1.5l1.3-0.4l0.3,0.2L211.1,273.6L211.1,273.6z"/>
			<path class="st30" d="M224.5,271.7c0.4,1.6,0.8,3.2,1.3,4.8l0,0c1.4-0.1,1.6-0.8,1.2-2c-0.4-1-0.7-2-0.9-3.1L224.5,271.7z"/>
			<path class="st38" d="M223.8,263.2l-1.6,0.5l0.3,1.3l-1.3,0.6l0.4,1.5l0,0c0.7-0.1,1.4-0.3,1.4-1.3s0.6-0.8,1.2-1.4L223.8,263.2z
				"/>
			<path class="st38" d="M228,265.3l-1.4,0.4c0.1,1.8,0.1,1.8,1.8,1.2L228,265.3L228,265.3z"/>
			<path class="st38" d="M221.6,267.1c-0.5,0.4-1.8,0-1.4,1.2c0.3,0.4,0.7,0.6,1.1,0.7C222.6,268.6,221.6,267.7,221.6,267.1
				L221.6,267.1z"/>
			<path class="st38" d="M228,265.3c0.4,0,0.8-0.1,1.1-0.3c0.2-0.2,0.4-0.7,0.3-0.9c-0.3-0.3-0.6-0.5-1-0.6c-0.2,0-0.6,0.5-0.6,0.7
				C227.8,264.6,227.8,265,228,265.3L228,265.3z"/>
			<path class="st20" d="M225.8,276.4L225.8,276.4l-1.5,0.4l0.4,1.6C226.3,278.1,226.4,277.9,225.8,276.4z"/>
			<path class="st31" d="M227.3,256.9c-1.7,0.1-1.4,1-1,2l1.3-0.4L227.3,256.9z"/>
			<path class="st21" d="M231.8,267l-0.2-0.8c-0.6,0.3-1.8-0.1-1.5,1.3L231.8,267z"/>
			<path class="st31" d="M231.8,267l-1.7,0.5c0.1,0.2,0.2,0.5,0.2,0.8h0.3l1.4-0.4l0,0L231.8,267z"/>
			<path class="st25" d="M106.2,283.3c-0.1-1.6-0.2-1.7-1.7-1.3c-3.3,0.9-6.6,1.9-10,2.7c-1.2,0.3-1.6,0.9-1.1,2.1s0.2,1.2,0.4,1.7
				h0.1l1.4-0.7l-0.2-1.4L106.2,283.3L106.2,283.3z"/>
			<path class="st27" d="M92.5,295.7l-1.7,0.6l0.6,1.6l4.6-1.3l-2.1-8.1h-0.1l-1.5,0.4v1.7l-2.7,0.9l0.2,1.6h0.7
				c2.7-0.7,2.7-0.7,3.2,2.3L92.5,295.7z"/>
			<path class="st30" d="M161.1,268.2l-0.5-1.6l-11.1,3.1l0.4,1.6L161.1,268.2L161.1,268.2z"/>
			<path class="st22" d="M144.4,271.1l-11.1,3l0.4,1.6h0.1l11.1-3L144.4,271.1z"/>
			<path class="st22" d="M121.9,277.3l-11.1,3.1l0.4,1.6l11.1-3.2L121.9,277.3z"/>
			<path class="st40" d="M128.8,289.3l1.6-0.5l-0.4-1.6c-0.5-2.1-1.1-4.2-1.7-6.4l-0.5-1.6l-1.7,0.4h0.1l0.3,1.7l1.8,6.4
				L128.8,289.3z"/>
			<path class="st40" d="M131.9,288.4l1.6-0.4l-0.4-1.6c-0.5-2.2-1.1-4.3-1.7-6.4l-0.5-1.7l0,0l-1.7,0.5l0.5,1.6l1.8,6.5
				L131.9,288.4z"/>
			<path class="st28" d="M149.9,271.3l-0.4-1.6l-1.5,0.4v1.6l-1.5,0.5l0,0l0.4,1.6l0,0l1.7-0.4l1.7-0.5
				C150.2,272.4,150.1,271.8,149.9,271.3z"/>
			<path class="st26" d="M121.9,277.3l0.4,1.5l0.7,1.6l1.5-0.3l1.7-0.5h-0.1l-0.4-1.5l-1.6,0.2l-0.6-1.4L121.9,277.3z"/>
			<path class="st26" d="M111.2,282l-0.4-1.6c-1.7,0.3-1.7,0.3-1.3,2s0.3,1.1,0.5,1.6l1.7-0.4L111.2,282z"/>
			<path class="st26" d="M132.1,276.2l-0.5,0.2l0.4,1.6l0.5-0.2l1.7-0.4l-0.4-1.7h-0.1L132.1,276.2z"/>
			<path class="st28" d="M144.4,271.1l0.5,1.6l0.4,0.2l1.3-0.7l0,0C146.1,270.5,146.1,270.5,144.4,271.1z"/>
			<path class="st28" d="M132.1,276.2l1.6-0.5l-0.4-1.6C131.6,274.5,131.6,274.5,132.1,276.2z"/>
			<path class="st20" d="M163.2,269.4c-0.2-1.5-0.9-1.8-2.1-1.2l0,0c0.1,0.6,0.3,1.1,0.4,1.7L163.2,269.4L163.2,269.4z"/>
			<path class="st28" d="M110,284c-0.2-0.5-0.3-1.1-0.5-1.6l-1.7,0.5l0.5,1.6l0,0l1.7-0.4V284z"/>
			<path class="st20" d="M165.3,270.7l-0.4-1.7l-1.7,0.4l0,0l0.5,1.7L165.3,270.7z"/>
			<path class="st22" d="M108.3,284.5l-0.5-1.6l-1.6,0.4l0,0c0.1,0.6,0.3,1.1,0.5,1.7L108.3,284.5z"/>
			<path class="st20" d="M129.7,280.4l-0.5-1.6l-1.4,0.4l0.5,1.6L129.7,280.4z"/>
			<path class="st27" d="M132,278l-0.4-1.6c-1.6,0.1-0.8,1.1-0.7,1.9l0,0L132,278z"/>
			<path class="st24" d="M187.2,275.1c-1.2,0.5-2,0.2-2.1-1.2l-5.4,1.5c-0.3,0.1-0.6,0.5-0.8,0.7s0.6,0.8,0.9,0.8s1.2,0.5,1.4,1.3
				l3.3,11.9c0.2,1,0.6,1.2,1.5,0.9l17.3-4.8l0.6-0.2v-1.7l1.5-0.4l0,0c-0.7-1.3-0.3-2,1.2-2.1l0,0l-2.2-8l1.6-0.6l-0.5-1.6l-14.5,4
				l0.6,1.6l4.6-1.2l0.6,1.5l1.5-0.3l0.4,1.5l-1.5,0.6l0.8,3l-1.5,0.5l0.2,1.5l-0.8,0.5c-0.3,0.8-0.4,1.7-0.7,1.8s-2.8,0.8-4.3,1.2
				l-0.5-1.5l-1.6,0.3l-0.5-1.5l-1.7,0.3l-0.7-2.9h-1.5l-0.4-1.4l1.3-0.7c-0.7-1.3,0.1-1.6,1.1-1.9l3.3-0.9l-0.2-1.7l-1.8,0.4
				L187.2,275.1z"/>
			<path class="st25" d="M207.4,285.1l-0.5-1.7l0,0l-1.6,0.5l0,0C205.4,285.3,206.1,285.7,207.4,285.1z"/>
			<path class="st37" d="M207,252.2l-30.6,8.5c0.7,2.7,1.5,5.4,2.2,8.1l1.7-0.5l0,0l-1.4-5l1.7-0.5l1.4-0.4l-0.4-1.6l19.4-5.3
				l0.5,1.5l1.6-0.4c0.2,0.8,0.4,1.3,0.6,1.9c1,3.7,0.5,3.1,3.9,2.3l0,0l-0.4-1.6l1.6-0.5l0,0L207,252.2z"/>
			<path class="st34" d="M180.3,268.3l-1.7,0.5l0.4,1.3l1.6-0.4L180.3,268.3z"/>
			<path class="st37" d="M221.9,249.6l-0.4-1.4l-12.8,3.6l0.4,1.2c1.4,0,1.4,0,1.9,1.4l9.7-2.6l-0.4-1.6L221.9,249.6z"/>
			<path class="st22" d="M211,254.4c-0.5-1.4-0.5-1.4-1.9-1.4l-0.4-1.2l-1.7,0.4l1.8,6.5l3-0.9L211,254.4z"/>
			<path class="st38" d="M180.3,268.3l0.3,1.4l3.2-0.8l19.4-5.4l4.7-1.3l-0.3-1.4c-3.4,0.8-2.9,1.4-3.9-2.3
				c-0.2-0.6-0.4-1.1-0.6-1.9l-1.6,0.4h-0.1l1.1,3.8c0.3,0.8,0.1,1.2-0.8,1.5l-17.2,4.7c-0.9,0.3-1.3,0-1.5-0.8s-0.6-2.6-1-3.8l0,0
				l-1.4,0.4l1.1,5L180.3,268.3L180.3,268.3z"/>
			<path class="st24" d="M211,254.4l0.8,3.4l9.8-2.7l-0.9-3.3L211,254.4z"/>
			<path class="st31" d="M220.7,251.8l0.9,3.3l0.4,1.6l1.7-0.3l-1.8-6.8l-1.6,0.6L220.7,251.8z"/>
			<path class="st20" d="M208.8,258.6l-1.6,0.5l0.4,1.6l1.6-0.4L208.8,258.6z"/>
			<path class="st40" d="M163.7,271.1l-0.5-1.7l-1.7,0.5l0,0c0.2,0.5,0.3,1.1,0.5,1.6l1.7,6.4l0.5,1.6l1.6-0.4l-0.4-1.6L163.7,271.1
				z"/>
			<path class="st23" d="M170.1,269.3c-3.4,0.9-3.4,0.9-2.5,4.2c0.3,1.1,0.7,2.1,1.2,3.1l1.4-0.5c-0.3-0.7-0.5-1.4-0.6-2.2
				c0-0.6,0.5-1.1,0.7-1.7h0.6L170.1,269.3z"/>
			<path class="st20" d="M164.2,279.5l-0.5-1.6l-1.6,0.5c0.2,0.6,0.3,1.1,0.4,1.7h0.1L164.2,279.5z"/>
			<path class="st20" d="M165.4,277.5l0.4,1.6l1.8-0.5l-0.5-1.6L165.4,277.5z"/>
			<path class="st27" d="M165.4,277.5l1.7-0.5l-1.8-6.3l-1.6,0.4C164.3,273.2,164.8,275.3,165.4,277.5z"/>
			<path class="st31" d="M233.7,267.4l-1.7,0.4l0,0l0.5,1.7l0,0C233.9,269.4,234.3,268.7,233.7,267.4z"/>
			<path class="st40" d="M124.5,280.1l-1.5,0.3c0,0.1-0.1,0.1-0.2,0.2l0.4,1.6l1.8,6.4l0.5,1.6l1.6-0.4l-0.4-1.7
				c-0.6-2.1-1.1-4.2-1.7-6.4L124.5,280.1z"/>
			<path class="st40" d="M134.2,277.4l-1.7,0.4l0.5,1.7c0.6,2.2,1.2,4.3,1.7,6.4l0.5,1.6l1.6-0.4l-0.3-1.6l-1.8-6.4
				C134.5,278.5,134.4,277.9,134.2,277.4z"/>
			<path class="st29" d="M126.7,288.1l0.4,1.7l1.7-0.5l-0.5-1.6L126.7,288.1z"/>
			<path class="st20" d="M135.2,287.5l-0.5-1.6l-1.6,0.5l0.4,1.6L135.2,287.5z"/>
			<path class="st29" d="M122.4,291.2l0.4,1.6c1.4-0.1,1.9-0.8,1.3-2.1H124L122.4,291.2z"/>
			<path class="st26" d="M140.5,287.9l-0.5-1.6l-1.7,0.3l0,0C138.5,288.1,139.2,288.5,140.5,287.9z"/>
			<path class="st20" d="M136.5,285.5l0.3,1.6l1.5-0.4l0,0l-0.4-1.5L136.5,285.5z"/>
			<path class="st20" d="M131.9,288.4l-0.4-1.5l-1.5,0.3l0.4,1.6L131.9,288.4z"/>
			<path class="st29" d="M125.5,290.2l-0.5-1.6l-1.4,0.4l0.4,1.6h0.1L125.5,290.2z"/>
			<path class="st40" d="M111.7,283.6L110,284l0,0l0.4,1.7l1.8,6.3l0.5,1.6l1.6-0.4l-0.4-1.6l-1.8-6.4c-0.1-0.6-0.3-1.1-0.5-1.7
				L111.7,283.6z"/>
			<path class="st40" d="M108.3,284.5l-1.6,0.5h-0.1l0.5,1.6l1.8,6.5l0.4,1.5l1.6-0.4l-0.3-1.6l-1.8-6.4L108.3,284.5z"/>
			<path class="st40" d="M117.5,292.5L117.5,292.5l-0.5-1.6l-1.8-6.4c-0.1-0.5-0.3-1.1-0.5-1.6l-1.4,0.4l0.4,1.6
				c0.6,2.2,1.1,4.4,1.6,6.5l0.4,1.6h0.3L117.5,292.5z"/>
			<path class="st20" d="M110.6,292.6l0.3,1.6l1.8-0.5l-0.5-1.6L110.6,292.6z"/>
			<path class="st20" d="M106.2,295.6l0.5,1.6c1.4-0.1,1.9-0.8,1.2-2.1h-0.1l-1.5,0.4C106.3,295.6,106.3,295.6,106.2,295.6z"/>
			<path class="st20" d="M109.3,294.6l-0.4-1.5l-1.4,0.3l0.3,1.7h0.1L109.3,294.6z"/>
			<path class="st26" d="M115.7,292.9l-0.4-1.6l-1.4,0.4l0.4,1.6L115.7,292.9z"/>
			<path class="st30" d="M117.5,292.5l-1.5,0.4c0.1,1.2,0.7,1.7,1.9,1.3L117.5,292.5z"/>
			<path class="st40" d="M148.1,284l1.6-0.5c-0.2-0.5-0.3-1.1-0.4-1.6l-1.8-6.4l-0.5-1.7l0,0l-1.4,0.4l-0.2,0.2l0.4,1.6l1.8,6.4
				L148.1,284z"/>
			<path class="st40" d="M150.4,272.9l-1.7,0.5l0.4,1.7l1.8,6.4l0.5,1.6l1.6-0.5l-0.4-1.6l-1.8-6.4l-0.4-1.6L150.4,272.9z"/>
			<path class="st25" d="M151.4,283.1l-0.5-1.6l-1.6,0.4l0.4,1.6L151.4,283.1z"/>
			<path class="st20" d="M156.6,283.5l-0.4-1.7l-1.7,0.4l0,0C154.6,283.8,155.4,284.1,156.6,283.5z"/>
			<path class="st26" d="M144.9,284.9l0.5,1.7c1.4-0.2,1.8-0.9,1.3-2.2h-0.1L144.9,284.9z"/>
			<path class="st20" d="M152.6,281l0.4,1.6l1.5-0.3l0,0l-0.5-1.6L152.6,281z"/>
			<path class="st29" d="M148.1,284l-0.5-1.6l-1.4,0.4l0.4,1.6h0.1L148.1,284z"/>
			<path class="st40" d="M93.9,288.5l2.1,8.1l0.5,1.7l1.6-0.6l-0.4-1.6c-0.6-2.1-1.2-4.2-1.7-6.4l-0.5-1.7l-0.2-0.2L93.9,288.5z"/>
			<path class="st20" d="M97.7,296.1l0.4,1.6l1.7-0.3h0.1l-0.6-1.6L97.7,296.1z"/>
			<path class="st30" d="M101.7,298.3l-0.4-1.3l-1.4,0.3h-0.1l0.5,1.3L101.7,298.3z"/>
			<path class="st40" d="M124,290.6l-0.4-1.6c-0.6-2.1-1.1-4.3-1.7-6.4l-0.5-1.6l-1.6,0.4l0.3,1.7l1.8,6.4l0.4,1.6h0.1L124,290.6z"
				/>
			<path class="st40" d="M119,291.9l1.8-0.5l-0.5-1.5l-1.8-6.4l-0.4-1.6l-1.7,0.5l0.4,1.6l1.8,6.4L119,291.9z"/>
			<path class="st29" d="M120.3,289.9l0.5,1.5l1.5-0.3l-0.4-1.6L120.3,289.9z"/>
			<path class="st29" d="M119,291.9l-0.4-1.5l-1.6,0.4l0.5,1.6L119,291.9z"/>
			<path class="st40" d="M146.6,284.4l-0.4-1.6l-1.8-6.4l-0.4-1.6l-1.7,0.4c0.2,0.6,0.3,1.1,0.4,1.7l1.8,6.3l0.3,1.7h0.1
				L146.6,284.4z"/>
			<path class="st40" d="M141.5,285.7l1.8-0.5l-0.4-1.5l-1.8-6.4l-0.5-1.6l-1.6,0.4l0.4,1.7l1.8,6.4L141.5,285.7z"/>
			<path class="st40" d="M137.9,285.1l0.4,1.5l1.7-0.3h0.1l-0.5-1.6l-1.8-6.4l-0.5-1.6l-1.4,0.4l0.4,1.6L137.9,285.1z"/>
			<path class="st29" d="M142.9,283.7l0.4,1.5l1.5-0.3l-0.3-1.7L142.9,283.7z"/>
			<path class="st29" d="M139.6,284.6l0.5,1.6l1.4-0.5l-0.3-1.5L139.6,284.6z"/>
			<path class="st40" d="M154,280.6l0.5,1.6l1.7-0.4h0.2l-0.4-1.6c-0.2-0.3-0.4-0.6-0.6-0.9c-0.5-1.8-1-3.6-1.4-5.4l-0.5-1.7
				l-1.7,0.5l0.4,1.6L154,280.6z"/>
			<path class="st40" d="M157.8,281.3l1.6-0.5l-0.4-1.6c-0.6-2.1-1.1-4.2-1.7-6.4l-0.5-1.6l-1.7,0.5l0.5,1.6l1.7,6.4L157.8,281.3z"
				/>
			<path class="st40" d="M162.5,280.1c-0.1-0.6-0.2-1.1-0.4-1.7c-0.6-2.2-1.1-4.3-1.7-6.4c-0.2-0.5-0.4-1.1-0.5-1.6l-1.7,0.4
				l0.5,1.6l1.7,6.5l0.5,1.5h0.2L162.5,280.1z"/>
			<path class="st28" d="M160.9,280.4l-0.5-1.5l-1.4,0.3l0.4,1.6L160.9,280.4z"/>
			<path class="st28" d="M157.8,281.3l-0.5-1.6l-1.3,0.4l0.4,1.6L157.8,281.3z"/>
			<path class="st40" d="M102.9,296.4l1.9-0.6l-2.4-7.8l-0.5-1.7l-1.6,0.5l0.4,1.6l1.7,6.4L102.9,296.4z"/>
			<path class="st40" d="M99.9,297.3l1.4-0.3c0.1,0,0.2-0.1,0.2-0.2l0,0l-0.4-1.6l-1.8-6.4l-0.5-1.6l-1.6,0.4l0.4,1.7l1.7,6.4
				L99.9,297.3z"/>
			<path class="st28" d="M102.4,288l2.4,7.8l1.4-0.2c0.1,0,0.1,0,0.1-0.1l-2.3-8L102.4,288z"/>
			<path class="st28" d="M101.1,295.2l0.4,1.6l1.4-0.4l-0.5-1.6L101.1,295.2z"/>
			<path class="st31" d="M204,291.2l-1.7,0.4c1.6,6,3.3,11.9,4.9,17.8l0,0l1.7-0.4l-0.5-1.7L204,291.2z"/>
			<path class="st31" d="M192.6,294.3l-1.7,0.5l4,14.5l0,0l1.6-0.5l-0.4-1.7L192.6,294.3z"/>
			<path class="st37" d="M204,291.2l4.4,16.1l1.4-0.4l-4.4-16.1L204,291.2z"/>
			<path class="st37" d="M192.6,294.3l3.5,12.8l1.6-0.4l-3.5-12.9L192.6,294.3z"/>
			<path class="st21" d="M207.2,309.4l-1.7,0.5l1.3,4.7l0,0l1.7-0.4l-0.5-1.7L207.2,309.4z"/>
			<path class="st31" d="M196.2,314l-0.4-1.4l-0.9-3.3l0,0l-1.4,0.4l1.3,4.7l0,0L196.2,314z"/>
			<path class="st21" d="M206.1,318.5c1.4-0.2,1.8-0.9,1.2-2.2l-0.5-1.7l0,0c-1.5,0.2-1.7,0.9-1.2,2.2S205.9,317.9,206.1,318.5z"/>
			<path class="st21" d="M194,318.2l-1.7,0.4c0.2,0.9,0.4,1.7,0.8,2.5c0.1,0.3,0.7,0.4,1.1,0.6s0.5-0.7,0.5-1S194.2,319,194,318.2
				L194,318.2z"/>
			<path class="st37" d="M194.9,309.3l0.9,3.3l1.6-0.5l-0.9-3.3L194.9,309.3z"/>
			<path class="st21" d="M194.8,314.4c-1.5,0.1-1.8,0.9-1.2,2.2c0.2,0.5,0.3,1.1,0.4,1.6l0,0c1.4-0.2,1.9-0.8,1.2-2.1L194.8,314.4z"
				/>
			<path class="st21" d="M206.1,318.5l-1.7,0.4c0.3,0.9,0.4,1.6,0.7,2.3s0.7,0.5,1,0.5c0.3-0.2,0.6-0.5,0.6-0.9
				C206.6,320,206.4,319.3,206.1,318.5z"/>
			<path class="st37" d="M207.2,309.4l0.8,3.1c1.4-0.1,1.9-0.7,1.3-2c-0.2-0.5-0.3-1-0.4-1.5L207.2,309.4z"/>
			<path class="st21" d="M192.9,327.2c-0.3-0.6,0-1.8-1.2-1.4s-0.7,0.7-0.6,1S192.3,327.2,192.9,327.2z"/>
			<path class="st37" d="M206.8,314.6l0.5,1.7c1.5-0.1,1.8-0.8,1.2-2.1L206.8,314.6z"/>
			<path class="st37" d="M194.8,314.4l0.4,1.7c1.6-0.2,1.3-1.1,1-2.1L194.8,314.4z"/>
			<path class="st29" d="M289,241.7l-14.5,3.9l0,0l0.4,1.6l14.5-4L289,241.7z"/>
			<path class="st20" d="M303.6,249.9l-1-3.3L301,247l1,3.3L303.6,249.9z"/>
			<path class="st20" d="M300.7,233.3l-0.9-3.4l-1.6,0.5l0.9,3.4l1.6-0.4V233.3z"/>
			<path class="st20" d="M299.9,236.8l-0.8-3l-1.6,0.4l0.8,3.1L299.9,236.8z"/>
			<path class="st20" d="M298.2,230.4l-0.9-3l-1.6,0.4l0.9,3L298.2,230.4z"/>
			<path class="st20" d="M301.6,243.3l-0.7-3.1l-1.6,0.4l0.8,3.1L301.6,243.3z"/>
			<path class="st20" d="M301.6,236.4l-1.6,0.5l0.9,3.3l1.6-0.4L301.6,236.4z"/>
			<path class="st30" d="M287.3,228.3c1.2-0.4,1.7,0,1.9,1.2s1.2,4.3,1.8,6.5l-2.2,0.6l-38.1,10.5c-1.2,0.4-1.7,0.2-1.9-1.1
				s-1.2-4.4-1.8-6.6C260.4,235.7,273.9,232.1,287.3,228.3z M252,239.6l-1.3,1.3l1,0.5c0.3,0.1,0.6-0.1,0.9-0.2s-0.1,1.8,1.2,1.4
				c0.4-0.2,0.6-0.7,0.6-1.1c-0.3-1.3-1.2-0.3-1.8-0.3L252,239.6z M256.8,238.3l-1.4,1.3l1.1,0.5c0.2,0.1,0.5-0.1,0.8-0.2
				s0,1.8,1.2,1.4c0.4-0.2,0.6-0.7,0.6-1.1c-0.3-1.3-1.2-0.3-1.8-0.3L256.8,238.3z"/>
			<path class="st41" d="M274.9,247.3l-0.4-1.6c-0.6,0.2-1.5,0-1.2,1.1S274.3,247.4,274.9,247.3z"/>
			<path class="st26" d="M269.8,253.8l-0.4-1.4h0.1l-1.7,0.5l0,0C267.9,254.5,268.8,254.2,269.8,253.8z"/>
			<path class="st18" d="M267.8,252.9l1.7-0.5l-0.5-1.6l-1.7,0.4L267.8,252.9z"/>
			<path class="st31" d="M190.9,275.6l14.5-4l1.5-0.4l-0.4-1.4l-19.3,5.3l0.4,1.3l1.8-0.4L190.9,275.6z"/>
			<path class="st25" d="M206.9,271.2l-1.5,0.4l0.5,1.6c0.7,2.7,1.5,5.4,2.3,8.1h-0.1l1.4-0.4L206.9,271.2z"/>
			<path class="st25" d="M212.9,280l-1.3-4.7l-1.6,0.4l1.3,4.7L212.9,280z"/>
			<path class="st23" d="M211.1,273.6l-0.9-3l-0.3-0.2l-1.3,0.4l0.9,3.2L211.1,273.6z"/>
			<path class="st25" d="M206.9,283.4c1.5-0.1,1.9-0.8,1.2-2.1h0.1l-1.7,0.5l0,0C206.6,282.3,206.8,282.9,206.9,283.4z"/>
			<path class="st20" d="M215.1,281.2l-0.6-1.5l-1.6,0.2C213.3,281.7,213.3,281.7,215.1,281.2z"/>
			<path class="st22" d="M232.5,269.5l-0.5-1.7l-1.4,0.4C230.8,269.3,231.1,270.2,232.5,269.5z"/>
			<path class="st22" d="M229.4,270.4l0.4,1.4c0.4-0.4,1.2-0.8,1.2-1.1S230,270.3,229.4,270.4z"/>
			<path class="st27" d="M126.7,288.1l1.6-0.4l-1.8-6.4l-1.5,0.4C125.6,283.9,126.1,286,126.7,288.1z"/>
			<path class="st27" d="M130,287.2l1.5-0.3l-1.8-6.5l-1.4,0.4C128.9,283,129.5,285.1,130,287.2z"/>
			<path class="st29" d="M125,281.7l1.5-0.4l-0.3-1.7l-1.7,0.5L125,281.7z"/>
			<path class="st27" d="M133.1,286.4l1.6-0.5c-0.5-2.1-1.1-4.2-1.7-6.4l-1.6,0.5C132,282.1,132.6,284.2,133.1,286.4z"/>
			<path class="st20" d="M131.4,280l1.6-0.5l-0.5-1.7L132,278l-1.1,0.3L131.4,280z"/>
			<path class="st20" d="M149.1,275.1l-0.4-1.7l-1.7,0.4c0.2,0.6,0.4,1.1,0.5,1.7L149.1,275.1z"/>
			<path class="st30" d="M145.3,272.9l0.3,1.3l1.4-0.4l-0.4-1.6L145.3,272.9z"/>
			<path class="st20" d="M108.3,284.5l0.5,1.7l1.6-0.4l-0.4-1.7L108.3,284.5z"/>
			<path class="st43" d="M190.9,275.6l-1.5,0.4l0.2,1.7l-3.3,0.9c-1,0.3-1.8,0.6-1.1,1.9l-1.3,0.7l0.4,1.4h1.5l0.7,2.9l1.7-0.3l0,0
				c-0.2-0.8-0.4-1.5-0.7-2.2c-0.1-0.3-0.5-0.7-0.7-0.7s-1.2-0.2-1.1-0.8c0.2-0.4,0.5-0.8,1-0.9l9.9-2.8h0.1l-0.6-1.5l-4.6,1.2
				L190.9,275.6z"/>
			<path class="st43" d="M190.3,286.3l0.5,1.5c1.5-0.4,2.9-0.7,4.3-1.2s0.4-1,0.7-1.8l0.8-0.5l-0.2-1.5h-0.1l-1.2,0.3l-0.7,2
				l-1.7-1.2l-1,0.2v1.7l-1.5,0.4L190.3,286.3z"/>
			<path class="st31" d="M206.5,281.8l1.7-0.5c-0.8-2.7-1.6-5.4-2.3-8.1l-1.6,0.6L206.5,281.8z"/>
			<path class="st43" d="M196.4,282.8l1.5-0.5l-0.8-3H197l-1.6,0.6l0.9,3L196.4,282.8z"/>
			<path class="st43" d="M188.2,285.1l0.5,1.5l1.6-0.3l0,0l-0.5-1.5L188.2,285.1z"/>
			<path class="st31" d="M206.9,283.4c-0.1-0.5-0.3-1.1-0.4-1.6s-1.9,0.8-1.2,2.1L206.9,283.4z"/>
			<path class="st43" d="M197.1,279.3l1.5-0.6l-0.4-1.5l-1.5,0.3h-0.1l0.4,1.6L197.1,279.3z"/>
			<path class="st38" d="M201.5,257l-0.5-1.5l-19.4,5.3l0.4,1.6l0,0l19.4-5.4H201.5z"/>
			<path class="st34" d="M180.3,268.3l1.4-0.5l-1.1-5l-1.7,0.5L180.3,268.3z"/>
			<path class="st32" d="M202.5,260.9c0.3,0.8,0.1,1.2-0.8,1.5l-17.2,4.7c-0.9,0.3-1.3,0-1.5-0.8s-0.6-2.6-1-3.8l19.4-5.4
				L202.5,260.9z M190.5,263.7c1.4-0.5,2.9-0.8,4.3-1.2s1.2-0.5,0.5-1.9l-6.3,1.8C189,263.5,189.4,264,190.5,263.7L190.5,263.7z"/>
			<path class="st27" d="M160.4,272c0.6,2.1,1.1,4.2,1.7,6.4l1.6-0.5l-1.7-6.4L160.4,272z"/>
			<path class="st20" d="M160.4,272l1.6-0.5c-0.2-0.5-0.3-1.1-0.5-1.6l-1.6,0.5C160,270.9,160.2,271.5,160.4,272z"/>
			<path class="st27" d="M121.9,282.6c0.6,2.1,1.1,4.3,1.7,6.4l1.4-0.4l-1.8-6.4L121.9,282.6z"/>
			<path class="st29" d="M121.9,282.6l1.3-0.4c-0.1-0.5-0.2-1.1-0.4-1.6l-1.4,0.4L121.9,282.6z"/>
			<path class="st27" d="M137.9,285.1l-1.6-6.5l-1.6,0.5l1.8,6.4L137.9,285.1z"/>
			<path class="st29" d="M134.7,279.1l1.6-0.5l-0.4-1.6l-1.7,0.4C134.4,277.9,134.5,278.5,134.7,279.1z"/>
			<path class="st27" d="M110.4,285.8l-1.6,0.4l1.8,6.4l1.6-0.5L110.4,285.8z"/>
			<path class="st27" d="M113.9,291.7l1.4-0.4c-0.5-2.1-1-4.3-1.6-6.5l-1.6,0.5L113.9,291.7z"/>
			<path class="st29" d="M112.1,285.3l1.6-0.5l-0.4-1.6l-1.7,0.4L112.1,285.3z"/>
			<path class="st27" d="M107.5,293.4l1.4-0.3l-1.8-6.5l-1.4,0.4L107.5,293.4z"/>
			<path class="st29" d="M105.7,287l1.4-0.4c-0.1-0.5-0.3-1.1-0.5-1.6l-1.4,0.4L105.7,287z"/>
			<path class="st27" d="M117,290.8l1.6-0.4l-1.8-6.4l-1.6,0.4L117,290.8z"/>
			<path class="st29" d="M115.2,284.4l1.6-0.4l-0.4-1.6l-1.7,0.4C114.9,283.3,115.1,283.9,115.2,284.4z"/>
			<path class="st40" d="M105.7,287l-0.5-1.6l-1.6,0.5l0.4,1.6l2.3,8l1.5-0.4l-0.3-1.7L105.7,287z"/>
			<path class="st27" d="M149.1,275.1l-1.6,0.4l1.8,6.4l1.6-0.4L149.1,275.1z"/>
			<path class="st27" d="M144.4,276.4l1.8,6.4l1.4-0.4l-1.8-6.4L144.4,276.4z"/>
			<path class="st29" d="M144.4,276.4l1.4-0.4c-0.1-0.5-0.3-1.1-0.4-1.6l-1.4,0.4L144.4,276.4z"/>
			<path class="st27" d="M154,280.6l-1.8-6.4l-1.4,0.4l1.8,6.4L154,280.6z"/>
			<path class="st20" d="M150.8,274.6l1.4-0.4l-0.4-1.6l-1.4,0.4L150.8,274.6z"/>
			<path class="st27" d="M99.3,295.7l-1.7-6.4l-1.6,0.4l1.7,6.4L99.3,295.7z"/>
			<path class="st20" d="M96,289.7l1.6-0.4l-0.4-1.7l-1.7,0.4L96,289.7z"/>
			<path class="st27" d="M120.3,289.9l1.6-0.4l-1.8-6.4l-1.6,0.4L120.3,289.9z"/>
			<path class="st29" d="M118.5,283.5l1.6-0.4l-0.3-1.7l-1.7,0.5L118.5,283.5z"/>
			<path class="st27" d="M142.9,283.7l1.6-0.5l-1.8-6.3l-1.6,0.4L142.9,283.7z"/>
			<path class="st29" d="M141.1,277.3l1.6-0.4c-0.1-0.6-0.2-1.1-0.4-1.7l-1.7,0.5L141.1,277.3z"/>
			<path class="st27" d="M139.6,284.6l1.6-0.4l-1.8-6.4l-1.6,0.4L139.6,284.6z"/>
			<path class="st29" d="M137.8,278.2l1.6-0.4l-0.4-1.7l-1.7,0.5L137.8,278.2z"/>
			<path class="st27" d="M156,280.1l1.3-0.4l-1.7-6.4l-1.6,0.5c0.4,1.8,0.9,3.6,1.4,5.4C155.6,279.5,155.8,279.8,156,280.1z"/>
			<path class="st29" d="M154,273.8l1.6-0.5l-0.5-1.6l-1.6,0.4L154,273.8z"/>
			<path class="st27" d="M159,279.2l1.4-0.3l-1.7-6.5l-1.4,0.4C157.9,275,158.4,277.1,159,279.2z"/>
			<path class="st29" d="M157.3,272.8l1.4-0.4l-0.5-1.6l-1.4,0.4L157.3,272.8z"/>
			<path class="st27" d="M101.1,295.2l1.3-0.4c-0.6-2.1-1.1-4.2-1.7-6.4l-1.4,0.4L101.1,295.2z"/>
			<path class="st25" d="M104,287.5l-0.4-1.6l-1.7,0.4l0.5,1.7L104,287.5z"/>
			<path class="st29" d="M99.3,288.8l1.4-0.4c-0.2-0.5-0.3-1.1-0.4-1.6l-1.5,0.4L99.3,288.8z"/>
			<path class="st26" d="M257.3,239.9c0.3,0.5,0,1.8,1.2,1.4c0.4-0.2,0.6-0.7,0.6-1.1C258.8,238.9,257.9,239.9,257.3,239.9
				L257.3,239.9z"/>
			<path class="st26" d="M252.6,241.2c0.3,0.5-0.1,1.8,1.2,1.4c0.4-0.2,0.6-0.7,0.6-1.1C254.1,240.2,253.2,241.2,252.6,241.2
				L252.6,241.2z"/>
			<path class="st28" d="M252.6,241.2l-0.6-1.6l-1.3,1.3l1,0.5C252,241.5,252.3,241.3,252.6,241.2L252.6,241.2z"/>
			<path class="st26" d="M257.3,239.9l-0.5-1.6l-1.4,1.3l1.1,0.5C256.7,240.2,257,240,257.3,239.9z"/>
			<path class="st44" d="M195.4,279.8l0.9,3l-1.2,0.3l-0.7,2l-1.7-1.2l-1,0.2v1.7l-1.5,0.4l-0.5-1.5l-1.6,0.3
				c-0.2-0.8-0.4-1.5-0.7-2.2c-0.1-0.3-0.5-0.7-0.7-0.7s-1.2-0.2-1.1-0.8c0.2-0.4,0.5-0.8,1-0.9l9.9-2.8l0.4,1.6L195.4,279.8z
				 M189.6,281.4c-0.2,0.2-0.4,0.4-0.4,0.7c0.2,0.3,0.5,0.5,0.8,0.6l3.5-1c0.2-0.2,0.4-0.5,0.4-0.8c-0.2-0.3-0.5-0.4-0.8-0.5
				l-1.8,0.5C190.7,281,190.1,281.1,189.6,281.4L189.6,281.4z"/>
			<path class="st38" d="M189,262.4c0,1.1,0.4,1.6,1.5,1.3s2.9-0.8,4.3-1.2s1.2-0.5,0.5-1.9L189,262.4z"/>
			<path class="st43" d="M191.3,280.9c-0.6,0.1-1.2,0.2-1.7,0.5c-0.2,0.2-0.4,0.4-0.4,0.7c0.2,0.3,0.5,0.5,0.8,0.6l3.5-1
				c0.2-0.2,0.4-0.5,0.4-0.8c-0.2-0.3-0.5-0.4-0.8-0.5L191.3,280.9z"/>
		</g>
	</g>
</g>
</svg>
