<?xml version="1.0" encoding="utf-8"?>
<!-- Generator: Adobe Illustrator 23.0.0, SVG Export Plug-In . SVG Version: 6.00 Build 0)  -->
<svg version="1.1" id="Layer_1" xmlns="http://www.w3.org/2000/svg" xmlns:xlink="http://www.w3.org/1999/xlink" x="0px" y="0px"
	 viewBox="0 0 360 360" style="enable-background:new 0 0 360 360;" xml:space="preserve">
<style type="text/css">
	.st0{fill:#F4DAC6;}
	.st1{opacity:0.2;}
	.st2{clip-path:url(#SVGID_2_);}
	.st3{fill:#333333;}
	.st4{fill:#151515;}
	.st5{fill:#EFEFEF;}
	.st6{fill:#505050;}
	.st7{fill:#A0A0A0;}
	.st8{fill:#969696;}
	.st9{fill:#989898;}
	.st10{fill:#BDBDBD;}
	.st11{fill:#D2D2D2;}
	.st12{fill:#606060;}
	.st13{fill:#4F4F4F;}
	.st14{fill:#D0D0D0;}
	.st15{fill:#424242;}
</style>
<title>man_skin1_front_2</title>
<rect y="0" class="st0" width="360" height="360"/>
<g class="st1">
	<defs>
		<rect id="SVGID_1_" y="-0.2" class="st1" width="359.7" height="359.7"/>
	</defs>
	<clipPath id="SVGID_2_">
		<use xlink:href="#SVGID_1_"  style="overflow:visible;"/>
	</clipPath>
	<g class="st2">
		
			<image style="overflow:visible;" width="4000" height="2406" id="poP7tR" xlink:href="51773924D7C33FCA.jpg"  transform="matrix(0.1494 0 0 0.1494 -139.2146 0)">
		</image>
	</g>
</g>
<rect x="66.1" y="100.1" class="st3" width="78.3" height="78.3"/>
<path class="st4" d="M139.9,104.6v69.3H70.6v-69.3H139.9 M148.9,95.6H61.6v87.3h87.3V95.6z"/>
<circle class="st5" cx="105.3" cy="137.8" r="17.2"/>
<rect x="215.6" y="100.1" class="st3" width="78.3" height="78.3"/>
<path class="st4" d="M289.4,104.6v69.3h-69.3v-69.3H289.4 M298.4,95.6h-87.3v87.3h87.3V95.6z"/>
<circle class="st5" cx="254.7" cy="137.8" r="17.2"/>
<image style="overflow:visible;opacity:0.3;enable-background:new    ;" width="57" height="57" xlink:href="51773924D7C33FCF.png"  transform="matrix(0.9825 0 0 0.9825 152.4 184.5)">
</image>
<rect x="163.7" y="195.9" class="st0" width="32.7" height="32.7"/>
<polygon class="st3" points="360,0 360,81.5 318.3,81.5 318.3,40.8 280.4,40.8 280.4,81.5 238.7,81.5 238.7,40.8 200.9,40.8 
	200.9,81.5 159.1,81.5 159.1,40.8 121.3,40.8 121.3,81.5 79.6,81.5 79.6,40.8 41.7,40.8 41.7,81.5 0,81.5 0,0 "/>
<g class="st1">
	<path class="st6" d="M33.2,0v41.7c0,0,0,0,0,0c-10.3,0-20.5,0-30.8,0c-0.8,0-1.6,0-2.5,0V0H33.2z"/>
	<path class="st7" d="M318.3,41.7c3.2,0,6.5,0,9.8,0c0-12.9,0-25.9,0-38.8c0-1,0-1.9,0-2.9h-42.1c0,12.6,0,25.2,0,37.8
		c0,0.7,0,1.3,0,2c0,0.4,0,0.7,0,1.1c0,0.3,0,0.6,0,0.9L318.3,41.7z"/>
	<path class="st6" d="M117.5,41.6C117.5,41.6,117.5,41.6,117.5,41.6L117.5,41.6L117.5,41.6z"/>
	<path class="st6" d="M159.1,41.7v-0.8h-37.8v0.9h-2c-0.6,0-1.2,0-1.9-0.1c0-13.9,0-27.8,0-41.6h42.1c0,13.9,0,27.8,0,41.7
		C159.4,41.7,159.3,41.7,159.1,41.7z"/>
	<path class="st7" d="M117.5,41.6L117.5,41.6C117.5,41.7,117.5,41.7,117.5,41.6l-33.3,0c-1.5,0-3,0-4.6,0v-0.8h-4.2
		c0-13.6,0-27.2,0-40.8h42.1C117.5,13.9,117.5,27.8,117.5,41.6z"/>
	<path class="st8" d="M201.7,40.8h-0.8v0.8c-13.8,0-27.5,0-41.3,0c0-13.9,0-27.8,0-41.7h42.1C201.7,13.6,201.7,27.2,201.7,40.8z"/>
	<path class="st8" d="M201.7,41.7L201.7,41.7L201.7,41.7C201.7,41.7,201.7,41.7,201.7,41.7z"/>
	<path class="st9" d="M285.9,0c0,12.6,0,25.2,0,37.8c0,0.7,0,1.3,0,2c0,0.4,0,0.7,0,1.1c0,0.3,0,0.6,0,0.9c-1.3,0-2.5-0.1-3.8-0.1
		h-1.6c-12.2,0-24.4,0-36.6,0c0-13.9,0-27.8,0-41.6H285.9z"/>
	<path class="st10" d="M33.2,41.7c0,13.3,0,26.6,0,39.9H0V41.7c0.8,0,1.6,0,2.5,0C12.7,41.7,23,41.7,33.2,41.7z"/>
	<path class="st10" d="M33.2,41.7C33.2,41.7,33.2,41.7,33.2,41.7L33.2,41.7L33.2,41.7z"/>
	<path class="st9" d="M33.2,41.7C33.2,41.7,33.2,41.7,33.2,41.7L33.2,41.7L33.2,41.7z"/>
	<path class="st9" d="M75.4,40.8H41.7v0.8c-2.8,0-5.6,0-8.5,0V0h42.1C75.4,13.6,75.4,27.2,75.4,40.8z"/>
	<path class="st10" d="M201.7,41.7C201.7,41.7,201.7,41.7,201.7,41.7L201.7,41.7C201.7,41.7,201.7,41.7,201.7,41.7L201.7,41.7z"/>
	<path class="st10" d="M243.8,0c0,13.9,0,27.8,0,41.6c-1.1,0-2.1,0.1-3.2,0.1h-1.9v-0.9h-37c0-13.6,0-27.2,0-40.8H243.8z"/>
	<path class="st11" d="M360,0v41.7c-10.7,0-21.3,0-32,0l0,0c0-12.9,0-25.9,0-38.8c0-1,0-1.9,0-2.9H360z"/>
	<path class="st12" d="M33.2,41.7c2.8,0,5.6,0,8.5,0V42h-5c-0.5,0-1,0-1.5,0.1c-0.9,0.1-1.4,0.6-1.5,1.5c0,0.5-0.1,1-0.1,1.5
		c0,12.2,0,24.3,0,36.5h-0.5C33.2,68.2,33.2,55,33.2,41.7L33.2,41.7C33.2,41.7,33.2,41.7,33.2,41.7z"/>
	<path class="st12" d="M117.5,42.1c-12.6,0-25.2,0-37.9,0v-0.5c1.5,0,3,0,4.6,0h33.3C117.5,41.8,117.5,41.9,117.5,42.1z"/>
	<path class="st12" d="M117.5,41.7C117.5,41.7,117.5,41.7,117.5,41.7L117.5,41.7L117.5,41.7z"/>
	<path class="st13" d="M201.7,41.7L201.7,41.7C201.7,41.7,201.7,41.7,201.7,41.7L201.7,41.7z"/>
	<path class="st13" d="M280.4,41.7v39.9h-41.7V41.7h1.9c1,0,2.1,0,3.2-0.1C256,41.7,268.2,41.7,280.4,41.7z"/>
	<path class="st14" d="M328,41.7c0,12,0,24,0,36c0,1.3,0,2.6,0,3.9h-9.7V41.7C321.5,41.7,324.8,41.7,328,41.7L328,41.7z"/>
	<path class="st6" d="M360,41.7v39.8h-32c0-1.3,0-2.6,0-3.9c0-12,0-24,0-36C338.7,41.7,349.3,41.7,360,41.7z"/>
	<path class="st10" d="M119.3,41.7h2v39.8h-3.8c0-4.7,0.1-9.4,0.1-14.1c0-8.4,0-16.9-0.1-25.3c0-0.1,0-0.3,0-0.4v0c0,0,0,0,0,0
		C118.1,41.7,118.7,41.7,119.3,41.7z"/>
	<path class="st10" d="M159.6,41.7c13.8,0,27.5,0,41.3,0v39.9h-41.8V41.7C159.3,41.7,159.4,41.7,159.6,41.7z"/>
	<path class="st10" d="M201.7,41.7L201.7,41.7C201.7,41.7,201.7,41.7,201.7,41.7L201.7,41.7C201.7,41.7,201.7,41.7,201.7,41.7z"/>
	<path class="st6" d="M117.5,67.4c0,4.7,0,9.4-0.1,14.1H79.6V42.1c12.6,0,25.2,0,37.9,0C117.5,50.5,117.5,59,117.5,67.4z"/>
	<path class="st15" d="M41.7,42v39.5h-8c0-12.2,0-24.3,0-36.5c0-0.5,0-1,0.1-1.5c0.1-0.9,0.6-1.4,1.5-1.5c0.5,0,1-0.1,1.5-0.1H41.7z
		"/>
</g>
<rect x="237.6" y="120.7" class="st5" width="34.3" height="34.3"/>
<rect x="88.1" y="120.7" class="st5" width="34.3" height="34.3"/>
<rect x="100.8" y="280.6" class="st4" width="25.3" height="25.3"/>
<rect x="75.4" y="293.3" class="st4" width="25.3" height="25.3"/>
<rect x="126.1" y="274.3" class="st4" width="25.3" height="25.3"/>
<rect x="151" y="274.3" class="st4" width="25.3" height="25.3"/>
<rect x="176.4" y="274.3" class="st4" width="25.3" height="25.3"/>
<rect x="201.7" y="274.3" class="st4" width="25.3" height="25.3"/>
<rect x="227" y="280.6" class="st4" width="25.3" height="25.3"/>
<rect x="252.4" y="293.3" class="st4" width="25.3" height="25.3"/>
</svg>
