<?xml version="1.0" encoding="utf-8"?>
<!-- Generator: Adobe Illustrator 23.0.0, SVG Export Plug-In . SVG Version: 6.00 Build 0)  -->
<svg version="1.1" id="Layer_1" xmlns="http://www.w3.org/2000/svg" xmlns:xlink="http://www.w3.org/1999/xlink" x="0px" y="0px"
	 viewBox="0 0 612 612" style="enable-background:new 0 0 612 612;" xml:space="preserve">
<style type="text/css">
	.st0{fill:#E8D2CA;}
	.st1{fill:#CFFDFF;}
	.st2{fill:#151515;}
	.st3{fill:#9AB8DB;}
	.st4{fill:#912929;}
	.st5{fill:#E57F7F;}
	.st6{fill:#141414;}
	.st7{fill:#FFFFFF;}
</style>
<title>man_skin1_front_2</title>
<g>
	<g>
		<g id="Layer_1-2">
			<rect y="0" class="st0" width="612" height="612"/>
			<circle class="st1" cx="433.1" cy="234.3" r="66.7"/>
			<path class="st2" d="M433.1,172.5c34.1,0,61.8,27.7,61.8,61.8s-27.7,61.8-61.8,61.8s-61.8-27.7-61.8-61.8l0,0
				C371.3,200.2,399,172.5,433.1,172.5 M433.1,162.5c-39.7-0.1-71.8,32-71.9,71.7s32,71.8,71.7,71.9s71.8-32,71.9-71.7
				c0,0,0-0.1,0-0.1C504.8,194.7,472.7,162.6,433.1,162.5L433.1,162.5z"/>
			<circle class="st3" cx="433.1" cy="234.3" r="40.4"/>
			<polygon class="st4" points="0,0 0,64.9 79.3,144.2 79.3,64.9 158.5,144.2 158.5,64.9 237.8,144.2 237.8,64.9 317,144.2 
				317,64.9 532.7,280.7 532.7,64.9 612,144.2 612,64.9 612,0 			"/>
			<circle class="st1" cx="179" cy="234.3" r="66.7"/>
			<path class="st2" d="M179,172.5c34.1-0.1,61.8,27.6,61.9,61.7c0.1,34.1-27.6,61.8-61.7,61.9c-34.1,0.1-61.8-27.6-61.9-61.7
				c0,0,0-0.1,0-0.1C117.3,200.2,144.9,172.6,179,172.5 M179,162.5c-39.7,0-71.8,32.1-71.8,71.8s32.1,71.8,71.8,71.8
				s71.8-32.1,71.8-71.8c0.1-39.6-32-71.7-71.6-71.8C179.1,162.5,179.1,162.5,179,162.5z"/>
			<circle class="st3" cx="179" cy="234.3" r="40.4"/>
			<rect x="178.9" y="458.5" class="st2" width="254.2" height="22"/>
			<rect x="206" y="431.5" class="st5" width="27" height="27"/>
			<rect x="232.8" y="419.1" class="st5" width="27" height="39.4"/>
			<rect x="259.7" y="431.5" class="st5" width="27" height="27"/>
			<rect x="286.7" y="442.7" class="st5" width="27" height="15.9"/>
			<rect x="178.9" y="442.7" class="st5" width="27" height="15.9"/>
			<rect x="325.3" y="431.5" class="st5" width="27" height="27"/>
			<rect x="352.1" y="419.1" class="st5" width="27" height="39.4"/>
			<rect x="379" y="431.5" class="st5" width="27" height="27"/>
			<rect x="406" y="442.7" class="st5" width="27" height="15.9"/>
			<rect x="298.2" y="442.7" class="st5" width="27" height="15.9"/>
			<rect x="206" y="480.5" class="st5" width="27" height="27"/>
			<rect x="232.8" y="480.5" class="st5" width="27" height="39.4"/>
			<rect x="259.7" y="480.5" class="st5" width="27" height="27"/>
			<rect x="286.7" y="480.5" class="st5" width="27" height="15.9"/>
			<rect x="178.9" y="480.5" class="st5" width="27" height="15.9"/>
			<rect x="325.3" y="480.5" class="st5" width="27" height="27"/>
			<rect x="352.1" y="480.5" class="st5" width="27" height="39.4"/>
			<rect x="379" y="480.5" class="st5" width="27" height="27"/>
			<rect x="406" y="480.5" class="st5" width="27" height="15.9"/>
			<rect x="298.2" y="480.5" class="st5" width="27" height="15.9"/>
			<rect x="433.1" y="458.5" class="st5" width="27" height="22"/>
			<rect x="151.9" y="458.5" class="st5" width="27" height="22"/>
			
				<image style="overflow:visible;opacity:0.3;enable-background:new    ;" width="103" height="103" xlink:href="7392C67621B5EC62.png"  transform="matrix(1 0 0 1 254.3 302)">
			</image>
			<circle class="st0" cx="306" cy="353.4" r="32.8"/>
			<path class="st6" d="M350.7,393c-5,4.6-11.6,7.2-18.4,7.2c-9.4,0-18.7-6-23.8-14l7.3-1.5c3.7,5.9,9.5,8.5,16.5,8.5
				c5.9,0,11.5-2.5,15.3-7l0,0C347.6,388.8,348.7,391.3,350.7,393z"/>
			<path class="st6" d="M359.5,373c0,1.5-0.2,3-0.4,4.5c-0.8-0.2-1.7-0.3-2.5-0.3c-1.7,0-3.5,0.5-4.9,1.5c0.5-1.9,0.8-3.8,0.8-5.7
				c0-9-5-17.2-13.7-19.6l-0.7-6.9C349.8,349.8,359.5,360.8,359.5,373z"/>
			<path class="st7" d="M365.7,386.2c-0.1,5-4.2,9-9.2,9c-2.1,0-4.2-0.8-5.8-2.2c4.4-4.1,7.4-9.5,8.4-15.5
				C363,378.6,365.7,382.2,365.7,386.2z"/>
		</g>
	</g>
</g>
</svg>
