<?xml version="1.0" encoding="utf-8"?>
<!-- Generator: Adobe Illustrator 23.0.0, SVG Export Plug-In . SVG Version: 6.00 Build 0)  -->
<svg version="1.1" id="Layer_1" xmlns="http://www.w3.org/2000/svg" xmlns:xlink="http://www.w3.org/1999/xlink" x="0px" y="0px"
	 viewBox="0 0 612 612" style="enable-background:new 0 0 612 612;" xml:space="preserve">
<style type="text/css">
	.st0{fill:#151515;}
	.st1{fill:#EFEFEF;}
	.st2{fill:#BABABA;}
</style>
<rect class="st0" width="612" height="612"/>
<title>man_skin1_front_2</title>
<polygon class="st0" points="560.1,51.9 560.1,306 462,306 462,560.1 150,560.1 150,306 51.9,306 51.9,51.9 "/>
<title>man_skin1_front_2</title>
<polygon class="st1" points="560.1,80.5 560.1,376 452,376 452,560.1 283.9,560.1 283.9,504.4 243.7,504.4 243.7,560.1 160,560.1 
	160,376 51.9,376 51.9,80.5 "/>
<g>
	<rect x="113.3" y="178.9" class="st0" width="173.8" height="173.8"/>
	<rect x="324.9" y="178.9" class="st0" width="173.8" height="173.8"/>
</g>
<rect x="293" y="367.8" class="st0" width="26" height="26"/>
<rect x="219" y="519.9" class="st2" width="24.7" height="40.2"/>
<rect x="293.6" y="532.3" class="st2" width="24.7" height="27.8"/>
<rect x="368.5" y="519.9" class="st2" width="24.7" height="40.2"/>
<rect x="354" y="497.9" class="st2" width="24.7" height="62.2"/>
<rect x="343.8" y="519.9" class="st2" width="24.7" height="40.2"/>
</svg>
