<?xml version="1.0" encoding="utf-8"?>
<!-- Generator: Adobe Illustrator 23.0.0, SVG Export Plug-In . SVG Version: 6.00 Build 0)  -->
<svg version="1.1" id="Layer_1" xmlns="http://www.w3.org/2000/svg" xmlns:xlink="http://www.w3.org/1999/xlink" x="0px" y="0px"
	 viewBox="0 0 455.9 450.3" style="enable-background:new 0 0 455.9 450.3;" xml:space="preserve">
<style type="text/css">
	.st0{fill:#39B6BC;}
	.st1{fill:#333333;}
	.st2{fill:#32A0A0;}
	.st3{opacity:0.3;}
	.st4{fill:none;stroke:#F2EFB1;stroke-miterlimit:10;}
	.st5{fill:#0A2D42;}
	.st6{fill:#1D5B5E;}
	.st7{fill:#082434;}
	.st8{fill:#247478;}
	.st9{fill:#0F415F;}
	.st10{fill:#34A7AD;}
</style>
<title>Asset 2</title>
<g>
	<g>
		<g id="Layer_1-2">
			<path class="st0" d="M335.1,119.4c-19.1-20.8-43.9-39.1-48.3-72.9c-2.5-18.9,2.4-35.4,7-46.5c-17,4.3-105.7,28.7-143.2,110.1
				c-8.8,19.2-14,39.8-15.5,60.8v76.9c-28.4,47-28.6,104.5,0,146.6c31.8,46.8,86.5,53.3,100.6,55c9.8,1.1,75.5,7.8,122.9-39.4
				c42.7-42.7,41.4-100.1,40.9-125.2C398.6,242.7,384,172.2,335.1,119.4z"/>
			<path class="st0" d="M69.8,294.7c-8.9,13.1-15.8,27.4-20.7,42.4L97,300.3l13.7-10.6c4,1.7,8.3,3.7,12.8,6s8,4.4,11.5,6.6
				c0-43.8,0-87.6,0.1-131.4c-1.9,44.4-15.8,69.3-28.9,84C95.8,266.5,83.6,274.4,69.8,294.7z"/>
			<path class="st0" d="M437.3,359.8c-5.6,21.6-16.1,62.9-48.4,72.7c-17.4,5.2-46.3,3.3-57.5-17.5c-10.3-19.1,2.1-47.9,18.6-60.2
				c9.1-6.8,18.2-7.6,28.7-19.7c6-6.9,8.9-13.4,11.3-18.6c9.5-21.2,8.8-44.7,8.8-44.7l0,0l36.2-0.9
				C441.1,291.6,446.6,323.7,437.3,359.8z"/>
			<path class="st1" d="M283.3,199.9h-71.7c-12.5-0.1-22.6,10-22.7,22.5c-0.1,12.5,10,22.6,22.5,22.7c12.5,0.1,22.6-10,22.7-22.5
				c0-0.1,0-0.1,0-0.2c0-6.6-2.9-12.9-8-17.1h41.4c-5.1,4.2-7.9,10.5-7.9,17.1c0,12.4,10.1,22.5,22.5,22.5s22.5-10.1,22.5-22.5
				C304.6,210.4,295.2,200.5,283.3,199.9L283.3,199.9z"/>
			<path class="st2" d="M281.3,304.8c0,0.8,0.1,4.7-2.1,5.9c-3.8,2-14-5.2-12.8-10.4c0.6-3,4.7-5.5,8.4-4.8S281.3,301.4,281.3,304.8
				z"/>
			<g>
				<g class="st3">
					<path d="M281.3,304.8c0,0.8,0.1,4.7-2.1,5.9c-3.8,2-14-5.2-12.8-10.4c0.6-3,4.7-5.5,8.4-4.8S281.3,301.4,281.3,304.8z"/>
				</g>
			</g>
			<path class="st4" d="M277.3,309.8c20.1,2.3,39.9,7.2,58.7,14.6c56.3,22.1,90.3,60.7,106.5,82.2"/>
			<path class="st4" d="M389.6,354.2c8.9,4.2,17.4,9.1,25.4,14.7c15.7,11,29.3,24.5,40.5,40"/>
			<g>
				<polygon class="st5" points="138.9,400.1 108,383.5 135.1,362.9 166,379.4 				"/>
				<polygon class="st6" points="138.9,400.1 108,383.5 94.3,344.7 125.1,361.3 				"/>
				<polygon class="st7" points="137.4,404 106.6,387.5 92.9,348.7 123.7,365.2 				"/>
				<polygon class="st7" points="166,379.4 135.1,362.9 109.8,293.2 140.7,309.8 				"/>
				<polygon class="st5" points="45.2,422.1 14.3,405.6 94.3,344.7 125.1,361.3 				"/>
				<polygon class="st6" points="45.2,422.1 14.3,405.6 3,374.5 33.9,391.1 				"/>
				<polygon class="st8" points="33.9,391.1 3,374.5 109.8,293.2 140.7,309.8 				"/>
				<path class="st9" d="M30.9,390.5l111.2-84.7L169,380l-31.6,24l-13.7-38.8l-79.9,60.9L30.9,390.5z M166,379.4l-25.3-69.6
					L33.9,391.1l11.3,31l79.9-60.8l13.8,38.8L166,379.4"/>
				<polygon class="st10" points="140.7,309.8 166,379.4 138.9,400.1 125.1,361.3 45.2,422.1 33.9,391.1 				"/>
				<polygon class="st7" points="43.8,426.1 12.9,409.5 0,373.9 30.9,390.5 				"/>
				<polygon class="st5" points="30.9,390.5 0,373.9 111.2,289.3 142.1,305.8 				"/>
			</g>
			<path class="st0" d="M123.3,366.6c29-5.8,19.8,1.1,23.4-5.1c1.7-3,3.9-5.8,6.5-8.1c1.1-1,8.8-8,16-7.6
				c10.1,0.5,18.3,15.4,20.3,27c3.4,20.3-10.2,42.4-27.9,52.9c-29.6,17.6-65.9-0.4-75.7-5.3c-6.8-3.4-13.2-7.5-19.1-12.4
				L123.3,366.6z"/>
			<path class="st0" d="M357,147.4c18.9,19,35.5,40.2,49.3,63.2c11.5,19.1,21.1,39.3,28.7,60.3l-36.2,0.9c-0.3-3.7-0.7-7.3-1.1-11
				C361.6,235.3,345.3,190,357,147.4z"/>
		</g>
	</g>
</g>
</svg>
