<?xml version="1.0" encoding="utf-8"?>
<!-- Generator: Adobe Illustrator 23.0.0, SVG Export Plug-In . SVG Version: 6.00 Build 0)  -->
<svg version="1.1" id="Layer_1" xmlns="http://www.w3.org/2000/svg" xmlns:xlink="http://www.w3.org/1999/xlink" x="0px" y="0px"
	 viewBox="0 0 612 612" style="enable-background:new 0 0 612 612;" xml:space="preserve">
<style type="text/css">
	.st0{fill:#4FC8F7;}
	.st1{fill:#EFEFEF;}
	.st2{fill:#132B38;}
</style>
<title>water_skin0</title>
<rect class="st0" width="612" height="612"/>
<g>
	<g>
		<circle class="st1" cx="57" cy="51.6" r="34.4"/>
		<circle class="st1" cx="156.6" cy="51.6" r="34.4"/>
		<circle class="st1" cx="256.2" cy="51.6" r="34.4"/>
		<circle class="st1" cx="355.8" cy="51.6" r="34.4"/>
		<circle class="st1" cx="455.4" cy="51.6" r="34.4"/>
		<circle class="st1" cx="555" cy="51.6" r="34.4"/>
	</g>
	<g>
		<circle class="st1" cx="57" cy="136.4" r="34.4"/>
		<circle class="st1" cx="156.6" cy="136.4" r="34.4"/>
		<circle class="st1" cx="256.2" cy="136.4" r="34.4"/>
		<circle class="st1" cx="355.8" cy="136.4" r="34.4"/>
		<circle class="st1" cx="455.4" cy="136.4" r="34.4"/>
		<circle class="st1" cx="555" cy="136.4" r="34.4"/>
	</g>
	<g>
		<circle class="st1" cx="57" cy="221.2" r="34.4"/>
		
			<ellipse transform="matrix(7.088903e-02 -0.9975 0.9975 7.088903e-02 -75.1447 361.7254)" class="st1" cx="156.6" cy="221.2" rx="34.4" ry="34.4"/>
		<circle class="st1" cx="256.2" cy="221.2" r="34.4"/>
		<circle class="st1" cx="355.8" cy="221.2" r="34.4"/>
		<circle class="st1" cx="455.4" cy="221.2" r="34.4"/>
		<circle class="st1" cx="555" cy="221.2" r="34.4"/>
	</g>
	<g>
		<circle class="st1" cx="57" cy="306" r="34.4"/>
		<circle class="st1" cx="156.6" cy="306" r="34.4"/>
		<circle class="st1" cx="256.2" cy="306" r="34.4"/>
		<circle class="st1" cx="355.8" cy="306" r="34.4"/>
		<circle class="st1" cx="455.4" cy="306" r="34.4"/>
		<circle class="st1" cx="555" cy="306" r="34.4"/>
	</g>
	<g>
		<circle class="st1" cx="57" cy="390.8" r="34.4"/>
		<circle class="st1" cx="156.6" cy="390.8" r="34.4"/>
		<circle class="st1" cx="256.2" cy="390.8" r="34.4"/>
		<circle class="st1" cx="355.8" cy="390.8" r="34.4"/>
		<circle class="st1" cx="455.4" cy="390.8" r="34.4"/>
		<circle class="st1" cx="555" cy="390.8" r="34.4"/>
	</g>
	<g>
		<circle class="st1" cx="57" cy="475.6" r="34.4"/>
		<circle class="st1" cx="156.6" cy="475.6" r="34.4"/>
		<circle class="st1" cx="256.2" cy="475.6" r="34.4"/>
		<circle class="st1" cx="355.8" cy="475.6" r="34.4"/>
		<circle class="st1" cx="455.4" cy="475.6" r="34.4"/>
		<circle class="st1" cx="555" cy="475.6" r="34.4"/>
	</g>
	<g>
		<circle class="st1" cx="57" cy="560.4" r="34.4"/>
		
			<ellipse transform="matrix(3.327795e-02 -0.9994 0.9994 3.327795e-02 -408.701 698.2643)" class="st1" cx="156.6" cy="560.4" rx="34.4" ry="34.4"/>
		<circle class="st1" cx="256.2" cy="560.4" r="34.4"/>
		<circle class="st1" cx="355.8" cy="560.4" r="34.4"/>
		<circle class="st1" cx="455.4" cy="560.4" r="34.4"/>
		<circle class="st1" cx="555" cy="560.4" r="34.4"/>
	</g>
</g>
<g>
	<circle cx="306" cy="306" r="114.4"/>
	<ellipse transform="matrix(0.7071 -0.7071 0.7071 0.7071 -126.7494 306)" class="st2" cx="306" cy="306" rx="61.6" ry="61.6"/>
	<circle class="st1" cx="318.6" cy="290.7" r="6.8"/>
	<circle class="st1" cx="325.5" cy="295.6" r="6.8"/>
</g>
</svg>
