<?xml version="1.0" encoding="utf-8"?>
<!-- Generator: Adobe Illustrator 23.0.0, SVG Export Plug-In . SVG Version: 6.00 Build 0)  -->
<svg version="1.1" id="Layer_1" xmlns="http://www.w3.org/2000/svg" xmlns:xlink="http://www.w3.org/1999/xlink" x="0px" y="0px"
	 viewBox="0 0 612 612" style="enable-background:new 0 0 612 612;" xml:space="preserve">
<style type="text/css">
	.st0{fill:#331010;}
	.st1{opacity:0.4;}
	.st2{fill:none;stroke:#FF278E;stroke-width:10;stroke-miterlimit:10;}
	.st3{fill:#9E2020;}
	.st4{fill:#CC5A29;}
	.st5{fill:#EFEFEF;}
</style>
<title>water_skin0</title>
<rect class="st0" width="612" height="612"/>
<g class="st1">
	<line class="st2" x1="41" y1="0" x2="41" y2="612"/>
	<line class="st2" x1="94" y1="0" x2="94" y2="612"/>
	<line class="st2" x1="147" y1="0" x2="147" y2="612"/>
	<line class="st2" x1="200" y1="0" x2="200" y2="612"/>
	<line class="st2" x1="253" y1="0" x2="253" y2="612"/>
	<line class="st2" x1="306" y1="0" x2="306" y2="612"/>
	<line class="st2" x1="359" y1="0" x2="359" y2="612"/>
	<line class="st2" x1="412" y1="0" x2="412" y2="612"/>
	<line class="st2" x1="465" y1="0" x2="465" y2="612"/>
	<line class="st2" x1="518" y1="0" x2="518" y2="612"/>
	<line class="st2" x1="571" y1="0" x2="571" y2="612"/>
</g>
<g>
	
		<ellipse transform="matrix(4.687760e-03 -1 1 4.687760e-03 -1.4311 610.5622)" class="st3" cx="306" cy="306" rx="114.4" ry="114.4"/>
	<ellipse transform="matrix(1 -9.465660e-03 9.465660e-03 1 -2.8828 2.9102)" class="st4" cx="306" cy="306" rx="61.6" ry="61.6"/>
	<circle class="st5" cx="318.6" cy="290.7" r="6.8"/>
	<circle class="st5" cx="325.5" cy="295.6" r="6.8"/>
</g>
</svg>
