<?xml version="1.0" encoding="utf-8"?>
<!-- Generator: Adobe Illustrator 23.0.0, SVG Export Plug-In . SVG Version: 6.00 Build 0)  -->
<svg version="1.1" id="Layer_1" xmlns="http://www.w3.org/2000/svg" xmlns:xlink="http://www.w3.org/1999/xlink" x="0px" y="0px"
	 viewBox="0 0 612 612" style="enable-background:new 0 0 612 612;" xml:space="preserve">
<style type="text/css">
	.st0{fill:#3D2E3D;}
	.st1{fill:none;stroke:#000000;stroke-width:4;stroke-linecap:round;stroke-miterlimit:10;}
	.st2{fill:#D11111;}
	.st3{fill:#FFFF8F;stroke:#151515;stroke-width:3;stroke-miterlimit:10;}
	.st4{fill:#151515;stroke:#151515;stroke-width:3;stroke-miterlimit:10;}
</style>
<title>water_skin0</title>
<rect class="st0" width="612" height="612"/>
<g>
	<g>
		<path class="st1" d="M33.2,3c18.3,17.4,40.5,44.4,42.9,79.2c3.4,50.6-38.9,62.2-52.1,117.4C2.8,288.7,93.8,337.9,64.9,418.2
			c-13.6,37.7-38,40.6-44.9,80.7C12.4,542.6,34.3,582.8,53,609"/>
		<path class="st1" d="M49.9,3c18.3,17.4,40.5,44.4,42.9,79.2c3.4,50.6-38.9,62.2-52.1,117.4c-21.2,89.1,69.8,138.2,40.8,218.5
			c-13.6,37.7-38,40.6-44.9,80.7c-7.5,43.7,14.4,83.9,33.1,110.1"/>
		<path class="st1" d="M66.7,3c18.3,17.4,40.5,44.4,42.9,79.2c3.4,50.6-38.9,62.2-52.1,117.4c-21.2,89.1,69.8,138.2,40.8,218.5
			c-13.6,37.7-38,40.6-44.9,80.7c-7.5,43.7,14.4,83.9,33.1,110.1"/>
		<path class="st1" d="M83.4,3c18.3,17.4,40.5,44.4,42.9,79.2c3.4,50.6-38.9,62.2-52.1,117.4C53,288.7,144,337.9,115,418.2
			c-13.6,37.7-38,40.6-44.9,80.7c-7.5,43.7,14.4,83.9,33.1,110.1"/>
		<path class="st1" d="M100.1,3c18.3,17.4,40.5,44.4,42.9,79.2c3.4,50.6-38.9,62.2-52.1,117.4c-21.2,89.1,69.8,138.2,40.8,218.5
			c-13.6,37.7-38,40.6-44.9,80.7c-7.5,43.7,14.4,83.9,33.1,110.1"/>
		<path class="st1" d="M116.8,3c18.3,17.4,40.5,44.4,42.9,79.2c3.4,50.6-38.9,62.2-52.1,117.4c-21.2,89.1,69.8,138.2,40.8,218.5
			c-13.6,37.7-38,40.6-44.9,80.7c-7.5,43.7,14.4,83.9,33.1,110.1"/>
		<path class="st1" d="M133.5,3c18.3,17.4,40.5,44.4,42.9,79.2c3.4,50.6-38.9,62.2-52.1,117.4c-21.2,89.1,69.8,138.2,40.8,218.5
			c-13.6,37.7-38,40.6-44.9,80.7c-7.5,43.7,14.4,83.9,33.1,110.1"/>
		<path class="st1" d="M150.2,3c18.3,17.4,40.5,44.4,42.9,79.2c3.4,50.6-38.9,62.2-52.1,117.4c-21.2,89.1,69.8,138.2,40.8,218.5
			c-13.6,37.7-38,40.6-44.9,80.7c-7.5,43.7,14.4,83.9,33.1,110.1"/>
	</g>
	<g>
		<path class="st1" d="M224.4,3c18.3,17.4,40.5,44.4,42.9,79.2c3.4,50.6-38.9,62.2-52.1,117.4C194,288.7,285,337.9,256.1,418.2
			c-13.6,37.7-38,40.6-44.9,80.7c-7.5,43.7,14.4,83.9,33.1,110.1"/>
		<path class="st1" d="M241.2,3c18.3,17.4,40.5,44.4,42.9,79.2c3.4,50.6-38.9,62.2-52.1,117.4c-21.2,89.1,69.8,138.2,40.8,218.5
			c-13.6,37.7-38,40.6-44.9,80.7c-7.5,43.7,14.4,83.9,33.1,110.1"/>
		<path class="st1" d="M257.9,3c18.3,17.4,40.5,44.4,42.9,79.2c3.4,50.6-38.9,62.2-52.1,117.4c-21.2,89.1,69.8,138.2,40.8,218.5
			c-13.6,37.7-38,40.6-44.9,80.7c-7.5,43.7,14.4,83.9,33.1,110.1"/>
		<path class="st1" d="M274.6,3c18.3,17.4,40.5,44.4,42.9,79.2c3.4,50.6-38.9,62.2-52.1,117.4c-21.2,89.1,69.8,138.2,40.8,218.5
			c-13.6,37.7-38,40.6-44.9,80.7c-7.5,43.7,14.4,83.9,33.1,110.1"/>
		<path class="st1" d="M291.3,3c18.3,17.4,40.5,44.4,42.9,79.2c3.4,50.6-38.9,62.2-52.1,117.4c-21.2,89.1,69.8,138.2,40.8,218.5
			c-13.6,37.7-38,40.6-44.9,80.7c-7.5,43.7,14.4,83.9,33.1,110.1"/>
		<path class="st1" d="M308,3c18.3,17.4,40.5,44.4,42.9,79.2c3.4,50.6-38.9,62.2-52.1,117.4c-21.2,89.1,69.8,138.2,40.8,218.5
			c-13.6,37.7-38,40.6-44.9,80.7c-7.5,43.7,14.4,83.9,33.1,110.1"/>
		<path class="st1" d="M324.7,3c18.3,17.4,40.5,44.4,42.9,79.2c3.4,50.6-38.9,62.2-52.1,117.4c-21.2,89.1,69.8,138.2,40.8,218.5
			c-13.6,37.7-38,40.6-44.9,80.7c-7.5,43.7,14.4,83.9,33.1,110.1"/>
		<path class="st1" d="M341.5,3c18.3,17.4,40.5,44.4,42.9,79.2c3.4,50.6-38.9,62.2-52.1,117.4c-21.2,89.1,69.8,138.2,40.8,218.5
			c-13.6,37.7-38,40.6-44.9,80.7c-7.5,43.7,14.4,83.9,33.1,110.1"/>
	</g>
	<g>
		<path class="st1" d="M415.7,3c18.3,17.4,40.5,44.4,42.9,79.2c3.4,50.6-38.9,62.2-52.1,117.4c-21.2,89.1,69.8,138.2,40.8,218.5
			c-13.6,37.7-38,40.6-44.9,80.7c-7.5,43.7,14.4,83.9,33.1,110.1"/>
		<path class="st1" d="M432.4,3c18.3,17.4,40.5,44.4,42.9,79.2c3.4,50.6-38.9,62.2-52.1,117.4C402,288.7,493,337.9,464,418.2
			c-13.6,37.7-38,40.6-44.9,80.7c-7.5,43.7,14.4,83.9,33.1,110.1"/>
		<path class="st1" d="M449.1,3c18.3,17.4,40.5,44.4,42.9,79.2c3.4,50.6-38.9,62.2-52.1,117.4c-21.2,89.1,69.8,138.2,40.8,218.5
			c-13.6,37.7-38,40.6-44.9,80.7c-7.5,43.7,14.4,83.9,33.1,110.1"/>
		<path class="st1" d="M465.8,3c18.3,17.4,40.5,44.4,42.9,79.2c3.4,50.6-38.9,62.2-52.1,117.4c-21.2,89.1,69.8,138.2,40.8,218.5
			c-13.6,37.7-38,40.6-44.9,80.7c-7.5,43.7,14.4,83.9,33.1,110.1"/>
		<path class="st1" d="M482.5,3c18.3,17.4,40.5,44.4,42.9,79.2c3.4,50.6-38.9,62.2-52.1,117.4c-21.2,89.1,69.8,138.2,40.8,218.5
			c-13.6,37.7-38,40.6-44.9,80.7c-7.5,43.7,14.4,83.9,33.1,110.1"/>
		<path class="st1" d="M499.2,3c18.3,17.4,40.5,44.4,42.9,79.2c3.4,50.6-38.9,62.2-52.1,117.4c-21.2,89.1,69.8,138.2,40.8,218.5
			c-13.6,37.7-38,40.6-44.9,80.7c-7.5,43.7,14.4,83.9,33.1,110.1"/>
		<path class="st1" d="M516,3c18.3,17.4,40.5,44.4,42.9,79.2c3.4,50.6-38.9,62.2-52.1,117.4c-21.2,89.1,69.8,138.2,40.8,218.5
			c-13.6,37.7-38,40.6-44.9,80.7c-7.5,43.7,14.4,83.9,33.1,110.1"/>
		<path class="st1" d="M532.7,3c18.3,17.4,40.5,44.4,42.9,79.2c3.4,50.6-38.9,62.2-52.1,117.4c-21.2,89.1,69.8,138.2,40.8,218.5
			c-13.6,37.7-38,40.6-44.9,80.7c-7.5,43.7,14.4,83.9,33.1,110.1"/>
	</g>
</g>
<g>
	<polygon class="st2" points="306,420.4 194.4,191.6 417.6,191.6 	"/>
	<g>
		<ellipse class="st3" cx="306.2" cy="266.4" rx="46.2" ry="47.4"/>
		<ellipse class="st4" cx="315.7" cy="254.6" rx="5.1" ry="5.2"/>
		<ellipse class="st4" cx="320.9" cy="258.4" rx="5.1" ry="5.2"/>
	</g>
</g>
</svg>
