<?xml version="1.0" encoding="utf-8"?>
<!-- Generator: Adobe Illustrator 23.0.0, SVG Export Plug-In . SVG Version: 6.00 Build 0)  -->
<svg version="1.1" id="Layer_1" xmlns="http://www.w3.org/2000/svg" xmlns:xlink="http://www.w3.org/1999/xlink" x="0px" y="0px"
	 viewBox="0 0 1133.9 1417.4" style="enable-background:new 0 0 1133.9 1417.4;" xml:space="preserve">
<style type="text/css">
	.st0{fill:#EFEFEF;}
	.st1{font-family:'HelveticaNeue-Bold';}
	.st2{font-size:5px;}
</style>
<path class="st0" d="M927.1,685.3c8.1-27.4,15-55.5,22.3-83.7c16.9-65.6,23.3-133,11.8-200c-17.1-99.9-60.3-178.2-132.2-237.4
	c-70.2-58.3-157.1-86.9-258.7-86.5c-12.2,0-24.6-0.9-36.7,0c-15.4,1.2-30.7,2.9-45.7,5.8c-121.2,22.7-209.6,77.1-267.2,176.4
	c-51.2,87.5-62,189.6-35.4,296.6c12.3,49.3,26.1,97.3,41.8,144c1.7,5.1,4.2,10,0.7,16.1c-23.3,40.2-18.7,78.8,1.8,113.7
	c16.6,28.3,43.5,45.2,70.7,61.7c13.6,8.3,28.3,12.8,45.7,9.1c4.4-1,9-0.6,13.6-0.7c39.3-0.2,60.6,83.3,61.3,121.8
	c0.1,9.2,18.1,20.5,27.3,17.3c3.7-1.3,3.5-4.2,3.6-6.9c0.3-6.1,0.4-55.5,0.7-61.6c0.1-2.6,1.1-4.9,4.2-5.2c3.8-0.4,4.9,2,4.8,5
	c-0.1,7.1-0.2,57.5-0.4,64.6c-0.2,4.5,0.8,8,6,9c12.8,2.5,25.8,4.6,39.1,5.5c5.7,0.4,7.9-1.8,7.9-7c0-9.5,0.2-62.2,0.4-71.7
	c0.1-3-0.3-6.7,4.2-7.1c5.3-0.5,5,3.7,5,7c0,9.5,0.1,62.2-0.3,71.7c-0.3,6.4,2.9,9.5,9.3,9.6c12.2,0.3,24.5,0.3,36.7,0.6
	c5.8,0.1,7.2-3.2,7.2-7.8c-0.1-9.8-0.1-62.8,0.1-72.7c0.1-3.4-1.4-8.5,4.3-8.7c5.8-0.2,4.9,4.9,4.9,8.4c0.2,9.1,0.4,61.5,0.1,70.6
	c-0.3,8,3.4,11,11.7,10.4c11.1-0.8,22.2-1.2,33.3-1.6c5.8-0.2,8.1-3,7.9-8.4c-0.3-9.5-0.4-62.2-0.4-71.7c0-3-0.6-6.8,3.9-7
	c5.3-0.3,5.3,3.8,5.4,7.2c0.3,8.5,0.5,60.2,0.5,68.6c0,6.5,2.4,9.6,9.8,8.2c10.5-1.9,20.9-3.7,31.5-4.9c8.5-0.9,11.3-5.3,10.5-13
	c-0.3-2.7-0.5-55.2-0.2-57.8c0.5-4.3-2.8-5.7,3.4-5.4c7.4,0.3,4.2,1.7,4.6,6.1c4.4,41.6-9.8,86.1,17.7,60.7c3.3-3.1,5.2-4.7,4.9-8.8
	c-0.3-5.8-0.7-11.6-0.6-17.4c0.5-28,12.7-107.5,39.8-114.4c15.7-3.9,32-4.1,48.4-0.4c9.1,2,16.9,1.2,25-1.9
	c28.7-11.3,52.2-29.4,73.8-50.3c15-14.5,25.5-32.5,29.8-54c6.3-31.1,5.6-62.4-18.5-88.9C924.5,693.6,925.8,689.7,927.1,685.3z
	 M485.9,683.3c-24.2,16-45.9,34.7-75.3,46.1c-53.7,20.7-104.6-6.5-118.4-45c-4.6-12-6.8-24.3-7.9-36.6c-1.2-13.3,1-26.3,3.2-39.3
	c4.5-27.6,13.6-53.3,31.4-76c5.5-7,11.9-11.7,20.4-14.4c13.2-4.3,26.4-6.8,40.1-7.5c36.1-2,71-2,107.1,3.9
	c39.9,6.1,51.9,14,54.8,61.5C543.7,616.8,528.1,655.1,485.9,683.3z M565.4,791.5c-2.7,6-7.2,9.5-14.2,9.3c-3.5-0.1-7,0.2-10.2,0.3
	c-4.7-1-9.3-1.5-13.5-2.9c-5.2-1.7-8.1-5.9-9.4-11.2c-1.7-6.8-1.3-13.7,0.8-20.2c5.6-17.7,14.6-34,20.5-51.6
	c2.3-7.1,4.6-12.5,9.3-8.6c5.5,0.2,6.6,5.6,7.7,9.9c5,19.1,9.1,38.4,11.7,57.9C569.1,780.2,567.9,786.1,565.4,791.5z M630,787.4
	c-1.6,6.3-5.4,10.6-12.4,11.6c-3.5,0.5-6.9,1.4-10,2.1c-4.8-0.1-9.4,0.2-13.8-0.5c-5.4-0.8-9-4.5-11.2-9.4
	c-2.8-6.4-3.6-13.2-2.7-20.1c2.4-18.4,6.1-36.6,11.2-54.4c1.2-4.3,2.6-9.5,7.7-10.1c5.4-0.7,7.5,4.4,9.3,8.4
	c8.2,17.9,15.6,36.2,21.6,55C631.6,775.6,631.5,781.6,630,787.4z M862.7,675.4c-11.4,37.6-58.1,67.8-115.7,47.8
	c-40.1-14-74.6-35.5-102.8-60.5c-36.1-32.2-43.5-72.3-34.8-113.1c3.3-15.5,12.7-25.8,29.5-30.5c38.4-10.8,75.1-14,113.6-14.5
	c18.2-0.2,35.9-0.1,53.7,5.7c7.4,2.4,13.4,6.1,18.6,12c23.3,26,34,56.9,40.5,89.6C870.2,632.8,869.5,654.3,862.7,675.4z"/>
<text transform="matrix(1 0 0 1 0 1148.9)" class="st1 st2">Created by Alvaro Cabrera</text>
<text transform="matrix(1 0 0 1 0 1153.9)" class="st1 st2">from the Noun Project</text>
</svg>
