<?xml version="1.0" encoding="utf-8"?>
<!-- Generator: Adobe Illustrator 23.0.0, SVG Export Plug-In . SVG Version: 6.00 Build 0)  -->
<svg version="1.1" id="Layer_1" xmlns="http://www.w3.org/2000/svg" xmlns:xlink="http://www.w3.org/1999/xlink" x="0px" y="0px"
	 viewBox="0 0 603.5 777.6" style="enable-background:new 0 0 603.5 777.6;" xml:space="preserve">
<style type="text/css">
	.st0{fill:#5A4959;}
	.st1{opacity:0.4;}
	.st2{opacity:0.2;}
	.st3{clip-path:url(#SVGID_2_);}
	.st4{fill:#EF7B60;stroke:#151515;stroke-width:2;stroke-miterlimit:10;}
	.st5{fill:#B24736;}
</style>
<title>form_back</title>
<g>
	<g>
		<g id="Layer_1-2">
			<path class="st0" d="M31,65.4h541.5c9.9,0,18,8.1,18,18v610.8c0,9.9-8.1,18-18,18H31c-9.9,0-18-8.1-18-18V83.4
				C13,73.5,21.1,65.4,31,65.4z"/>
			<g>
				<g class="st1">
					<path d="M31,65.4h541.5c9.9,0,18,8.1,18,18v610.8c0,9.9-8.1,18-18,18H31c-9.9,0-18-8.1-18-18V83.4C13,73.5,21.1,65.4,31,65.4z"
						/>
				</g>
			</g>
			<g class="st2">
				<g>
					<defs>
						<path id="SVGID_1_" d="M31,65.4h541.5c9.9,0,18,8.1,18,18v610.8c0,9.9-8.1,18-18,18H31c-9.9,0-18-8.1-18-18V83.4
							C13,73.5,21.1,65.4,31,65.4z"/>
					</defs>
					<clipPath id="SVGID_2_">
						<use xlink:href="#SVGID_1_"  style="overflow:visible;"/>
					</clipPath>
					<g class="st3">
						<g id="mrQX5R.tif">
							
								<image style="overflow:visible;enable-background:new    ;" width="4000" height="3000" id="Layer_0" xlink:href="60B991685C537797.png"  transform="matrix(-3.490243e-17 0.19 -0.19 -3.490243e-17 590.5 0)">
							</image>
						</g>
					</g>
				</g>
			</g>
			<path class="st4" d="M572.5,53.4H31c-16.6,0-30,13.4-30,30v610.8c0,16.6,13.4,30,30,30h541.5c16.6,0,30-13.4,30-30V83.4
				C602.5,66.8,589.1,53.4,572.5,53.4z M590.5,694.2c0,9.9-8.1,18-18,18H31c-9.9,0-18-8.1-18-18V83.4c0-9.9,8.1-18,18-18h139.7v59.1
				l130.8,39.2l131.3-39.2V65.4h139.7c9.9,0,18,8.1,18,18V694.2z"/>
		</g>
	</g>
</g>
<polygon class="st5" points="431.8,124.5 301.8,162.4 171.7,124.5 171.7,112.3 301.8,150.2 431.8,112.3 "/>
</svg>
