<?xml version="1.0" encoding="utf-8"?>
<!-- Generator: Adobe Illustrator 23.0.0, SVG Export Plug-In . SVG Version: 6.00 Build 0)  -->
<svg version="1.1" id="Layer_1" xmlns="http://www.w3.org/2000/svg" xmlns:xlink="http://www.w3.org/1999/xlink" x="0px" y="0px"
	 viewBox="0 0 250.9 250.9" style="enable-background:new 0 0 250.9 250.9;" xml:space="preserve">
<style type="text/css">
	.st0{fill:none;}
	.st1{fill:none;stroke:#EFEFEF;stroke-width:0.36;stroke-miterlimit:10;}
</style>
<title>Asset 22</title>
<g>
	<g>
		<g id="Layer_1-2">
			<rect class="st0" width="250.9" height="250.9"/>
			<g>
				<polygon class="st1" points="110.2,125.4 99.1,140.9 88.1,125.4 88.1,114.6 99.1,99.1 110.2,114.6 				"/>
				<polygon class="st1" points="110.2,136.3 99.1,151.8 88.1,136.3 88.1,125.4 99.1,110 110.2,125.4 				"/>
				<polygon class="st1" points="99.1,136.5 83.7,125.4 99.1,114.4 110,114.4 125.4,125.4 110,136.5 				"/>
				<polygon class="st1" points="88.3,136.5 72.8,125.4 88.3,114.4 99.1,114.4 114.6,125.4 99.1,136.5 				"/>
				<polygon class="st1" points="136.5,99.1 125.4,114.6 114.4,99.1 114.4,88.3 125.4,72.8 136.5,88.3 				"/>
				<polygon class="st1" points="136.5,110 125.4,125.4 114.4,110 114.4,99.1 125.4,83.7 136.5,99.1 				"/>
				<polygon class="st1" points="125.4,110.2 110,99.1 125.4,88.1 136.3,88.1 151.8,99.1 136.3,110.2 				"/>
				<polygon class="st1" points="114.6,110.2 99.1,99.1 114.6,88.1 125.4,88.1 140.9,99.1 125.4,110.2 				"/>
				<polygon class="st1" points="136.5,151.8 125.4,167.2 114.4,151.8 114.4,140.9 125.4,125.4 136.5,140.9 				"/>
				<polygon class="st1" points="136.5,162.6 125.4,178.1 114.4,162.6 114.4,151.8 125.4,136.3 136.5,151.8 				"/>
				<polygon class="st1" points="125.4,162.8 110,151.8 125.4,140.7 136.3,140.7 151.8,151.8 136.3,162.8 				"/>
				<polygon class="st1" points="114.6,162.8 99.1,151.8 114.6,140.7 125.4,140.7 140.9,151.8 125.4,162.8 				"/>
				<polygon class="st1" points="162.8,125.4 151.8,140.9 140.7,125.4 140.7,114.6 151.8,99.1 162.8,114.6 				"/>
				<polygon class="st1" points="162.8,136.3 151.8,151.8 140.7,136.3 140.7,125.4 151.8,110 162.8,125.4 				"/>
				<polygon class="st1" points="151.8,136.5 136.3,125.4 151.8,114.4 162.6,114.4 178.1,125.4 162.6,136.5 				"/>
				<polygon class="st1" points="140.9,136.5 125.4,125.4 140.9,114.4 151.8,114.4 167.2,125.4 151.8,136.5 				"/>
			</g>
		</g>
	</g>
</g>
</svg>
