<?xml version="1.0" encoding="utf-8"?>
<!-- Generator: Adobe Illustrator 23.0.0, SVG Export Plug-In . SVG Version: 6.00 Build 0)  -->
<svg version="1.1" id="Layer_1" xmlns="http://www.w3.org/2000/svg" xmlns:xlink="http://www.w3.org/1999/xlink" x="0px" y="0px"
	 viewBox="0 0 100 101" style="enable-background:new 0 0 100 101;" xml:space="preserve">
<style type="text/css">
	.st0{opacity:1.000000e-02;}
	.st1{fill:#FFFFFF;}
</style>
<g class="st0">
	<path class="st1" d="M42.8,43.7c-2.5,2.4-6.4,2.2-8.8-0.4c-2.3-2.4-2.3-6.3,0.2-8.7c2.4-2.3,6.4-2.2,8.7,0.2
		C45.3,37.5,45.2,41.4,42.8,43.7 M64.8,66.8c-2.5,2.4-6.4,2.2-8.7-0.2c-2.4-2.5-2.3-6.2,0.2-8.7c2.4-2.3,6.3-2.3,8.7,0.2
		C67.3,60.6,67.2,64.6,64.8,66.8"/>
	<path class="st1" d="M55.2,55.8c-3,2.9-7.6,2.6-10.3-0.3C42,52.5,42,47.9,45,45c2.9-2.7,7.6-2.6,10.4,0.4
		C58.2,48.4,58.1,53.1,55.2,55.8"/>
	<path class="st1" d="M32.5,54.2c-1.9,1.8-5,1.6-6.8-0.3C23.9,52,24,49,25.9,47.2s5-1.9,6.8,0.1C34.5,49.2,34.4,52.4,32.5,54.2"/>
	<path class="st1" d="M51.7,74.4c-1.9,1.8-4.9,1.7-6.7-0.2c-1.8-1.9-1.9-5,0.1-6.8c1.9-1.8,5.1-1.7,6.9,0.2
		C53.8,69.5,53.6,72.6,51.7,74.4"/>
	<g>
		<path class="st1" d="M27.9,15.1c-0.8-0.9-0.8-2.4,0.2-3.3c0.9-0.8,2.4-0.8,3.2,0.1c1,1,0.9,2.5,0,3.3
			C30.3,16.2,28.9,16.1,27.9,15.1"/>
		<path class="st1" d="M11.5,30.5c-0.8-0.9-0.8-2.4,0.1-3.2c1-1,2.5-0.9,3.3,0c1,1,0.9,2.5-0.1,3.5C13.9,31.6,12.4,31.5,11.5,30.5"
			/>
		<path class="st1" d="M5.8,22.7c-0.7-0.7-0.7-1.9,0.1-2.6c0.8-0.8,2-0.8,2.7,0c0.8,0.8,0.8,2-0.1,2.8C7.8,23.6,6.6,23.6,5.8,22.7"
			/>
		<path class="st1" d="M20.7,8.2C20,7.5,20,6.3,20.8,5.6c0.8-0.8,2-0.8,2.7,0c0.8,0.8,0.8,2-0.1,2.8C22.7,9.1,21.5,9,20.7,8.2"/>
		<path class="st1" d="M9.5,11.2C8.7,10.3,8.7,8.8,9.6,8c0.9-0.8,2.4-0.8,3.2,0.1c1,1,0.9,2.5,0,3.3C12,12.3,10.5,12.2,9.5,11.2"/>
		<path class="st1" d="M35.5,23.9c-1.4-1.5-1.3-3.9,0.1-5.2c1.5-1.4,3.7-1.4,5.2,0.1c1.3,1.4,1.3,3.6-0.2,5.1
			C39.2,25.3,36.9,25.4,35.5,23.9"/>
		<path class="st1" d="M18.1,40.5c-1.4-1.5-1.4-3.8,0.1-5.2c1.4-1.3,3.8-1.4,5.2,0.1c1.3,1.4,1.1,3.8-0.3,5.1
			C21.7,41.9,19.4,41.9,18.1,40.5"/>
		<path class="st1" d="M16.2,20.8c-1.3-1.4-1.1-3.8,0.3-5.1c1.5-1.4,3.8-1.4,5.1,0c1.5,1.5,1.4,3.8-0.1,5.2
			C20,22.3,17.7,22.3,16.2,20.8"/>
		<path class="st1" d="M25,31.6c-1.8-1.9-1.6-5,0.3-6.8c1.9-1.8,4.9-1.7,6.7,0.2c1.8,1.9,1.9,5-0.1,6.8C30,33.6,26.8,33.5,25,31.6"
			/>
	</g>
	<g>
		<path class="st1" d="M84.5,72.6c0.9,0.9,2.4,0.9,3.3-0.1c0.9-0.9,0.9-2.4,0-3.2c-1-1-2.5-1-3.3-0.1C83.5,70.1,83.5,71.6,84.5,72.6
			"/>
		<path class="st1" d="M68.7,88.7c0.9,0.9,2.4,0.9,3.2,0c1-1,1-2.5,0.1-3.3c-1-1-2.5-1-3.5,0C67.7,86.2,67.7,87.7,68.7,88.7"/>
		<path class="st1" d="M76.4,94.5c0.7,0.7,1.9,0.7,2.6,0c0.8-0.8,0.8-2,0.1-2.7c-0.8-0.8-2-0.8-2.8,0C75.6,92.5,75.6,93.7,76.4,94.5
			"/>
		<path class="st1" d="M91.2,79.9c0.7,0.7,1.9,0.7,2.6,0c0.8-0.8,0.8-2,0.1-2.7c-0.8-0.8-2-0.8-2.8,0C90.4,77.9,90.4,79.1,91.2,79.9
			"/>
		<path class="st1" d="M88,91c0.9,0.9,2.4,0.8,3.2,0c0.9-0.9,0.9-2.4,0-3.2c-1-1-2.5-1-3.3-0.1C87,88.6,87,90.1,88,91"/>
		<path class="st1" d="M75.8,64.8c1.5,1.5,3.8,1.3,5.2,0c1.5-1.5,1.5-3.7,0-5.2c-1.4-1.4-3.6-1.3-5.1,0.1
			C74.5,61.1,74.4,63.4,75.8,64.8"/>
		<path class="st1" d="M58.9,81.9c1.5,1.5,3.7,1.5,5.2,0c1.3-1.4,1.5-3.7,0-5.2c-1.4-1.4-3.7-1.2-5.1,0.1
			C57.5,78.3,57.5,80.5,58.9,81.9"/>
		<path class="st1" d="M78.5,84.1c1.4,1.4,3.7,1.2,5.1-0.1c1.5-1.5,1.5-3.7,0.1-5.1c-1.5-1.5-3.7-1.5-5.2,0
			C77.1,80.3,77,82.7,78.5,84.1"/>
		<path class="st1" d="M67.9,75.2c1.9,1.9,5,1.7,6.8-0.2c1.8-1.9,1.8-4.8,0-6.7c-1.9-1.9-5-2-6.8-0.1C66,70.1,66.1,73.3,67.9,75.2"
			/>
	</g>
	<path class="st1" d="M53.4,34.1c1.9-1.8,1.8-4.9,0-6.8s-4.8-1.9-6.7-0.1s-2,4.9-0.2,6.8S51.5,36,53.4,34.1"/>
	<path class="st1" d="M72.8,54.1c1.9-1.8,1.9-4.8,0.1-6.7s-4.9-2-6.8-0.2s-1.9,5.1-0.1,6.9C67.9,56,71,55.9,72.8,54.1"/>
	<path class="st1" d="M56.2,42.9c-2.4-2.5-2.2-6.4,0.4-8.8c2.4-2.3,6.3-2.3,8.7,0.2c2.3,2.4,2.2,6.4-0.2,8.7
		C62.4,45.4,58.5,45.3,56.2,42.9 M33,64.9c-2.4-2.5-2.2-6.4,0.2-8.7c2.5-2.4,6.3-2.3,8.7,0.2c2.3,2.4,2.3,6.3-0.2,8.7
		C39.3,67.4,35.3,67.3,33,64.9"/>
	<g>
		<path class="st1" d="M84.8,28c0.9-0.8,2.4-0.8,3.3,0.2c0.8,0.9,0.8,2.4-0.1,3.2c-1,1-2.5,0.9-3.3,0C83.7,30.5,83.8,29,84.8,28"/>
		<path class="st1" d="M69.4,11.6c0.9-0.8,2.4-0.8,3.2,0.1c1,1,0.9,2.5,0,3.4c-1,1-2.5,0.9-3.5-0.1C68.3,14,68.4,12.5,69.4,11.6"/>
		<path class="st1" d="M77.2,6c0.7-0.7,1.9-0.7,2.6,0.1c0.8,0.8,0.8,2,0,2.7c-0.8,0.8-2,0.8-2.8-0.1C76.3,7.9,76.3,6.7,77.2,6"/>
		<path class="st1" d="M91.7,20.8c0.7-0.7,1.9-0.7,2.6,0.1c0.8,0.8,0.8,2,0,2.7c-0.8,0.8-2,0.8-2.8-0.1
			C90.8,22.8,90.9,21.6,91.7,20.8"/>
		<path class="st1" d="M88.7,9.6c0.9-0.8,2.4-0.8,3.2,0.1c0.8,0.9,0.8,2.4-0.1,3.2c-1,1-2.5,0.9-3.3,0C87.6,12.1,87.7,10.6,88.7,9.6
			"/>
		<path class="st1" d="M75.9,35.6c1.5-1.4,3.9-1.3,5.2,0.1c1.4,1.5,1.4,3.7-0.1,5.2c-1.4,1.3-3.6,1.3-5.1-0.3
			C74.6,39.3,74.5,37,75.9,35.6"/>
		<path class="st1" d="M59.4,18.2c1.5-1.4,3.7-1.4,5.2,0.1c1.3,1.4,1.4,3.7-0.1,5.2c-1.4,1.3-3.7,1.1-5.1-0.3
			C58,21.8,58,19.5,59.4,18.2"/>
		<path class="st1" d="M79.1,16.3c1.4-1.3,3.8-1.1,5.1,0.3c1.4,1.5,1.4,3.8,0,5.1c-1.5,1.4-3.8,1.4-5.2-0.1
			C77.6,20.1,77.6,17.8,79.1,16.3"/>
		<path class="st1" d="M68.3,25.1c1.9-1.8,5-1.6,6.8,0.3s1.7,4.9-0.2,6.7c-1.9,1.8-5,1.9-6.8-0.1C66.3,30.1,66.4,26.9,68.3,25.1"/>
	</g>
	<g>
		<path class="st1" d="M27.3,84.6c-0.9,0.9-0.9,2.4,0.1,3.3c0.9,0.9,2.4,0.9,3.2,0c1-1,1-2.5,0.1-3.3C29.8,83.6,28.3,83.6,27.3,84.6
			"/>
		<path class="st1" d="M11.2,68.8c-0.9,0.9-0.9,2.4,0,3.2c1,1,2.5,1,3.3,0.1c1-1,1-2.5,0-3.5C13.7,67.8,12.2,67.8,11.2,68.8"/>
		<path class="st1" d="M5.4,76.5c-0.7,0.7-0.7,1.9,0,2.6c0.8,0.8,2,0.8,2.7,0.1c0.8-0.8,0.8-2,0-2.8C7.4,75.7,6.2,75.7,5.4,76.5"/>
		<path class="st1" d="M20,91.3c-0.7,0.7-0.7,1.9,0,2.6c0.8,0.8,2,0.8,2.7,0.1c0.8-0.8,0.8-2,0-2.8C22,90.5,20.8,90.5,20,91.3"/>
		<path class="st1" d="M8.8,88.1c-0.9,0.9-0.9,2.4,0,3.2c0.9,0.9,2.4,0.8,3.2,0c1-1,1-2.5,0.1-3.3C11.3,87.1,9.8,87.1,8.8,88.1"/>
		<path class="st1" d="M35.1,75.9c-1.5,1.5-1.3,3.8,0,5.2c1.5,1.5,3.7,1.5,5.2,0c1.4-1.4,1.3-3.6-0.1-5.1
			C38.8,74.6,36.5,74.5,35.1,75.9"/>
		<path class="st1" d="M18,59c-1.5,1.5-1.5,3.7,0,5.2c1.4,1.4,3.7,1.5,5.2,0c1.4-1.4,1.2-3.7-0.1-5.1C21.6,57.6,19.4,57.6,18,59"/>
		<path class="st1" d="M15.7,78.6c-1.4,1.4-1.2,3.7,0.1,5.1c1.5,1.5,3.7,1.5,5.1,0.1c1.5-1.5,1.5-3.7,0-5.2
			C19.6,77.2,17.2,77.1,15.7,78.6"/>
		<path class="st1" d="M24.7,68c-1.8,1.9-1.7,5,0.2,6.8c1.9,1.9,4.8,1.8,6.7,0c1.9-1.9,2-5,0.1-6.8C29.8,66.1,26.6,66.2,24.7,68"/>
	</g>
</g>
</svg>
