<?xml version="1.0" encoding="utf-8"?>
<!-- Generator: Adobe Illustrator 23.0.0, SVG Export Plug-In . SVG Version: 6.00 Build 0)  -->
<svg version="1.1" id="Capa_1" xmlns="http://www.w3.org/2000/svg" xmlns:xlink="http://www.w3.org/1999/xlink" x="0px" y="0px"
	 viewBox="0 0 42 42" style="enable-background:new 0 0 42 42;" xml:space="preserve">
<style type="text/css">
	.st0{fill:#151515;}
	.st1{fill:#EF7B60;}
</style>
<path class="st0" d="M36.1,20.2l-29-20C6.9,0.1,6.7,0,6.5,0S6.2,0,6,0.1C5.7,0.3,5.5,0.6,5.5,1v40c0,0.4,0.2,0.7,0.5,0.9
	C6.2,42,6.3,42,6.5,42s0.4-0.1,0.6-0.2l29-20c0.3-0.2,0.4-0.5,0.4-0.8S36.3,20.4,36.1,20.2z M35.4,21.1L6.6,40.9H6.5V1L35.4,21.1
	C35.4,21,35.4,21,35.4,21.1z"/>
<path class="st1" d="M35.4,21C35.4,21,35.4,21,35.4,21L6.6,40.9H6.5V1L35.4,21z"/>
</svg>
